<?xml version="1.0" standalone="no"?>
<!DOCTYPE svg PUBLIC "-//W3C//DTD SVG 1.1//EN" "http://www.w3.org/Graphics/SVG/1.1/DTD/svg11.dtd">
<svg xmlns="http://www.w3.org/2000/svg"><defs><font id="flaticon" horiz-adv-x="512"><font-face units-per-em="512" ascent="448" descent="-64" x-height="240" cap-height="480"/><missing-glyph horiz-adv-x="512"/><glyph unicode="&#xE000;" glyph-name="add138" horiz-adv-x="404" d="M350.31578947368 -64L350.31578947368 -10.105263157895L404.21052631579 -10.105263157895L404.21052631579 43.789473684211L350.31578947368 43.789473684211L350.31578947368 97.684210526316L296.42105263158 97.684210526316L296.42105263158 43.789473684211L242.52631578947 43.789473684211L242.52631578947 -10.105263157895L296.42105263158 -10.105263157895L296.42105263158 -64ZM404.21052631579 442.34105263158C404.21052631579 445.46694736842 401.73136842105 448 398.65936842105 448H5.5511578947368C2.4791578947368 448 0 445.49389473684 0 442.34105263158v-500.68210526316 C0 -61.466947368421 2.4791578947368 -64 5.5511578947368 -64h246.51452631579C229.69936842105 -44.247578947368 215.57894736842 -15.36 215.57894736842 16.842105263158H53.894736842105v26.947368421053h165.07957894737c5.4433684210526 21.180631578947 17.192421052632 39.855157894737 33.091368421053 53.894736842105H53.894736842105v26.947368421053h296.42105263158v-3.3953684210526 c21.180631578947 -5.4433684210526 39.855157894737 -17.192421052632 53.894736842105 -33.091368421053V442.34105263158zM350.31578947368 178.52631578947H53.894736842105V205.47368421053h296.42105263158V178.52631578947zM350.31578947368 259.36842105263H53.894736842105V286.31578947368h296.42105263158V259.36842105263zM350.31578947368 340.21052631579H53.894736842105V367.15789473684h296.42105263158V340.21052631579z"/><glyph unicode="&#xE001;" glyph-name="add140" horiz-adv-x="465" d="M27.894306728412 285.28321075093H46.49051121402V355.01897757196H27.894306728412C27.894306728412 355.01897757196 0 355.01897757196 0 320.15109416145S27.894306728412 285.28321075093 27.894306728412 285.28321075093zM27.894306728412 192.30218832289H46.49051121402V262.03795514392H27.894306728412C27.894306728412 262.03795514392 0 262.03795514392 0 227.17007173341S27.894306728412 192.30218832289 27.894306728412 192.30218832289zM27.894306728412 76.075910287842H46.49051121402v69.73576682103H27.894306728412c0 0 -27.894306728412 0 -27.894306728412 -34.867883410515S27.894306728412 76.075910287842 27.894306728412 76.075910287842zM418.41460092618 -63.395623354218L418.41460092618 -16.905112140198L464.9051121402 -16.905112140198L464.9051121402 29.585399073822L418.41460092618 29.585399073822L418.41460092618 76.075910287842L371.92408971216 76.075910287842L371.92408971216 29.585399073822L325.43357849814 29.585399073822L325.43357849814 -16.905112140198L371.92408971216 -16.905112140198L371.92408971216 -63.395623354218ZM464.9051121402 448H92.98102242804v-21.804049759375h350.67792608735v-340.51974938709c7.9498774175974 -4.8582584218651 15.109416144556 -10.902024879688 21.246163624807 -17.852356306184V448zM69.73576682103 390.93289748479v-443.72868428221C69.73576682103 -58.653591210388 74.431308453646 -63.395623354218 80.475074911468 -63.395623354218h221.45755016798l32.427131571779 -0.60437664578226 C314.64777989649 -46.937982384455 302.18832289113 -21.763370562063 302.18832289113 6.3401434668119c0 51.348769635885 41.632252792155 92.98102242804 92.98102242804 92.98102242804c7.9963679288114 0 15.78352855716 -1.0227912467084 23.198765095796 -2.9056569508762L418.41460092618 100.69263597567V390.93289748479C418.41460092618 396.76745664215 413.71905929356 401.50948878598 407.67529283574 401.50948878598 H80.475074911468C74.547534731681 401.50948878598 69.73576682103 396.76745664215 69.73576682103 390.93289748479zM27.894306728412 -16.905112140198H46.49051121402v69.73576682103H27.894306728412c0 0 -27.894306728412 0 -27.894306728412 -34.867883410515S27.894306728412 -16.905112140198 27.894306728412 -16.905112140198z"/><glyph unicode="&#xE002;" glyph-name="add142" horiz-adv-x="404" d="M53.894736842105 16.842105263158h161.68421052632c0 9.2968421052632 1.1856842105263 18.324210526316 3.3953684210526 26.947368421053H53.894736842105V16.842105263158zM350.31578947368 124.63157894737h-26.947368421053c9.2968421052632 0 18.324210526316 -1.1856842105263 26.947368421053 -3.3953684210526V124.63157894737zM350.31578947368 -64L350.31578947368 -10.105263157895L404.21052631579 -10.105263157895L404.21052631579 43.789473684211L350.31578947368 43.789473684211L350.31578947368 97.684210526316L296.42105263158 97.684210526316L296.42105263158 43.789473684211L242.52631578947 43.789473684211L242.52631578947 -10.105263157895L296.42105263158 -10.105263157895L296.42105263158 -64ZM323.36842105263 124.63157894737H53.894736842105v-26.947368421053h198.17094736842C271.06357894737 114.44547368421 296.04378947368 124.63157894737 323.36842105263 124.63157894737zM53.894736842105 205.47368421053l296.42105263158 0l0 -26.947368421053l-296.42105263158 0ZM404.21052631579 442.34105263158C404.21052631579 445.46694736842 401.73136842105 448 398.65936842105 448H5.5511578947368C2.4791578947368 448 0 445.49389473684 0 442.34105263158v-500.68210526316 C0 -61.466947368421 2.4791578947368 -64 5.5511578947368 -64h246.51452631579c-8.7309473684211 7.7069473684211 -16.195368421053 16.815157894737 -22.069894736842 26.947368421053H26.947368421053V421.05263157895h350.31578947368v-310.83789473684c10.132210526316 -5.8745263157895 19.240421052632 -13.338947368421 26.947368421053 -22.069894736842V442.34105263158zM53.894736842105 286.31578947368l296.42105263158 0l0 -26.947368421053l-296.42105263158 0ZM53.894736842105 367.15789473684l296.42105263158 0l0 -26.947368421053l-296.42105263158 0Z"/><glyph unicode="&#xE003;" glyph-name="add143" horiz-adv-x="372" d="M69.818181818182 5.8181818181818h139.63636363636c0 8.0290909090909 1.024 15.825454545455 2.9323636363636 23.272727272727H69.818181818182V5.8181818181818zM325.81818181818 -64L325.81818181818 -17.454545454545L372.36363636364 -17.454545454545L372.36363636364 29.090909090909L325.81818181818 29.090909090909L325.81818181818 75.636363636364L279.27272727273 75.636363636364L279.27272727273 29.090909090909L232.72727272727 29.090909090909L232.72727272727 -17.454545454545L279.27272727273 -17.454545454545L279.27272727273 -64ZM302.54545454545 98.909090909091H69.818181818182v-23.272727272727h171.14763636364C257.37309090909 90.112 278.94690909091 98.909090909091 302.54545454545 98.909090909091zM69.818181818182 308.36363636364l232.72727272727 0l0 -23.272727272727l-232.72727272727 0ZM69.818181818182 168.72727272727l232.72727272727 0l0 -23.272727272727l-232.72727272727 0ZM372.36363636364 345.6L270.80145454545 448H11.287272727273C11.287272727273 448 0 448 0 436.61963636364V-52.596363636364C0 -64 11.287272727273 -64 11.287272727273 -64 h229.67854545455c-7.5403636363636 6.656 -13.986909090909 14.522181818182 -19.060363636364 23.272727272727H23.272727272727V424.72727272727h232.72727272727v-69.818181818182c0 -23.272727272727 23.272727272727 -23.272727272727 23.272727272727 -23.272727272727h69.818181818182v-245.17818181818c8.7505454545455 -5.0734545454545 16.616727272727 -11.52 23.272727272727 -19.060363636364V345.6zM69.818181818182 378.18181818182l139.63636363636 0l0 -23.272727272727l-139.63636363636 0ZM69.818181818182 238.54545454545l232.72727272727 0l0 -23.272727272727l-232.72727272727 0Z"/><glyph unicode="&#xE004;" glyph-name="add144" horiz-adv-x="536" d="M180.49219047619 448H38.936380952381C30.890666666667 448 24.380952380952 441.44152380952 24.380952380952 433.5420952381V326.09523809524h24.380952380952V423.61904761905h121.90476190476v-48.761904761905h316.95238095238v-48.761904761905h24.380952380952V384.78019047619 C512 392.77714285714 505.36838095238 399.2380952381 497.56647619048 399.2380952381H195.04761904762V433.63961904762C195.04761904762 441.56342857143 188.56228571429 448 180.49219047619 448zM0 287.37828571429v-337.04228571429C0 -57.587809523809 6.3878095238095 -64 14.336 -64h384.3900952381 c-7.8994285714286 6.9729523809524 -14.652952380952 15.213714285714 -19.968 24.380952380952H24.380952380952V277.33333333333h487.61904761905v-183.71047619048c9.1672380952381 -5.3150476190476 17.408 -12.068571428571 24.380952380952 -19.968V287.37828571429C536.38095238095 295.3020952381 529.99314285714 301.71428571429 522.02057142857 301.71428571429H14.336 C6.4121904761905 301.71428571429 0 295.37523809524 0 287.37828571429zM487.61904761905 -64L487.61904761905 -15.238095238095L536.38095238095 -15.238095238095L536.38095238095 33.52380952381L487.61904761905 33.52380952381L487.61904761905 82.285714285714L438.85714285714 82.285714285714L438.85714285714 33.52380952381L390.09523809524 33.52380952381L390.09523809524 -15.238095238095L438.85714285714 -15.238095238095L438.85714285714 -64Z"/><glyph unicode="&#xE005;" glyph-name="add145" horiz-adv-x="372" d="M325.81818181818 -64L325.81818181818 -17.454545454545L372.36363636364 -17.454545454545L372.36363636364 29.090909090909L325.81818181818 29.090909090909L325.81818181818 75.636363636364L279.27272727273 75.636363636364L279.27272727273 29.090909090909L232.72727272727 29.090909090909L232.72727272727 -17.454545454545L279.27272727273 -17.454545454545L279.27272727273 -64ZM11.287272727273 448C11.287272727273 448 0 448 0 436.61963636364V-52.596363636364C0 -64 11.287272727273 -64 11.287272727273 -64h229.67854545455 C221.64945454545 -46.941090909091 209.45454545455 -21.992727272727 209.45454545455 5.8181818181818H69.818181818182v23.272727272727h142.56872727273c4.7010909090909 18.292363636364 14.848 34.420363636364 28.578909090909 46.545454545455H69.818181818182v23.272727272727h232.72727272727c27.810909090909 0 52.759272727273 -12.194909090909 69.818181818182 -31.511272727273V331.63636363636h-93.090909090909c0 0 -23.272727272727 0 -23.272727272727 23.272727272727V448 H11.287272727273zM69.818181818182 378.18181818182h139.63636363636v-23.272727272727H69.818181818182V378.18181818182zM69.818181818182 308.36363636364h139.63636363636v-23.272727272727H69.818181818182V308.36363636364zM302.54545454545 145.45454545455H69.818181818182v23.272727272727h232.72727272727V145.45454545455zM302.54545454545 238.54545454545v-23.272727272727H69.818181818182V238.54545454545H302.54545454545zM279.27272727273 354.90909090909L363.12436363636 354.90909090909L279.27272727273 439.45890909091Z"/><glyph unicode="&#xE006;" glyph-name="add147" horiz-adv-x="536" d="M170.59352380952 448H48.835047619048C35.328 448 24.380952380952 437.17485714286 24.380952380952 423.61904761905v-97.52380952381h487.61904761905V374.88152380952C512 388.33980952381 501.07733333333 399.2380952381 487.66780952381 399.2380952381 H195.04761904762V423.61904761905C195.04761904762 437.07733333333 184.36876190476 448 170.59352380952 448zM487.61904761905 -64L487.61904761905 -15.238095238095L536.38095238095 -15.238095238095L536.38095238095 33.52380952381L487.61904761905 33.52380952381L487.61904761905 82.285714285714L438.85714285714 82.285714285714L438.85714285714 33.52380952381L390.09523809524 33.52380952381L390.09523809524 -15.238095238095L438.85714285714 -15.238095238095L438.85714285714 -64ZM0 277.16266666667v-316.58666666667C0 -53.00419047619 10.703238095238 -64 24.429714285714 -64h374.29638095238 C378.4899047619 -46.128761904762 365.71428571429 -19.992380952381 365.71428571429 9.1428571428571c0 53.857523809524 43.666285714286 97.52380952381 97.52380952381 97.52380952381c29.135238095238 0 55.271619047619 -12.775619047619 73.142857142857 -33.01180952381V277.16266666667C536.38095238095 290.71847619048 525.65333333333 301.71428571429 511.95123809524 301.71428571429H24.429714285714 C10.947047619048 301.71428571429 0 290.76723809524 0 277.16266666667z"/><glyph unicode="&#xE007;" glyph-name="add150" horiz-adv-x="465" d="M27.927272727273 -17.454545454545H46.545454545455v69.818181818182H27.927272727273c0 0 -27.927272727273 0 -27.927272727273 -34.909090909091S27.927272727273 -17.454545454545 27.927272727273 -17.454545454545zM27.927272727273 75.636363636364H46.545454545455v69.818181818182H27.927272727273c0 0 -27.927272727273 0 -27.927272727273 -34.909090909091S27.927272727273 75.636363636364 27.927272727273 75.636363636364zM27.927272727273 285.09090909091H46.545454545455V354.90909090909H27.927272727273C27.927272727273 354.90909090909 0 354.90909090909 0 320S27.927272727273 285.09090909091 27.927272727273 285.09090909091zM27.927272727273 192H46.545454545455V261.81818181818H27.927272727273C27.927272727273 261.81818181818 0 261.81818181818 0 226.90909090909S27.927272727273 192 27.927272727273 192zM69.818181818182 390.86545454545v-444.25309090909C69.818181818182 -59.252363636364 74.519272727273 -64 80.570181818182 -64h253.50981818182 c-6.9352727272727 6.1207272727273 -12.939636363636 13.242181818182 -17.803636363636 21.154909090909H91.089454545455V380.29963636364h306.52509090909v-281.41381818182c7.3309090909091 -0.16290909090909 14.452363636364 -1.1636363636364 21.271272727273 -2.9090909090909V390.86545454545 C418.90909090909 396.70690909091 414.208 401.45454545455 408.15709090909 401.45454545455H80.570181818182C74.635636363636 401.45454545455 69.818181818182 396.70690909091 69.818181818182 390.86545454545zM465.45454545455 448H93.090909090909v-21.829818181818h351.09236363636v-340.92218181818c7.9592727272727 -4.864 15.127272727273 -10.914909090909 21.271272727273 -17.873454545455V448zM418.90909090909 -64L418.90909090909 -17.454545454545L465.45454545455 -17.454545454545L465.45454545455 29.090909090909L418.90909090909 29.090909090909L418.90909090909 75.636363636364L372.36363636364 75.636363636364L372.36363636364 29.090909090909L325.81818181818 29.090909090909L325.81818181818 -17.454545454545L372.36363636364 -17.454545454545L372.36363636364 -64Z"/><glyph unicode="&#xE008;" glyph-name="add151" horiz-adv-x="489" d="M325.65527272727 448H23.458909090909C10.496 448 0 437.78327272727 0 424.68072727273v-465.33818181818C0 -53.550545454545 10.449454545455 -64 23.458909090909 -64 h302.19636363636c2.5134545454545 0 4.9338181818182 0.39563636363636 7.1912727272727 1.0938181818182C325.81818181818 -56.482909090909 319.79054545455 -49.012363636364 314.99636363636 -40.727272727273H23.272727272727V424.72727272727h302.54545454545v-357.32945454545c6.656 7.5403636363636 14.522181818182 13.986909090909 23.272727272727 19.060363636364V424.68072727273 C349.09090909091 437.55054545455 338.64145454545 448 325.65527272727 448zM418.90909090909 285.09090909091v-189.11418181818c8.2618181818182 -2.1178181818182 16.058181818182 -5.3527272727273 23.272727272727 -9.5185454545455V261.81818181818h23.272727272727c12.846545454545 0 23.272727272727 10.193454545455 23.272727272727 23.342545454545 V401.38472727273C488.72727272727 414.27781818182 478.39418181818 424.72727272727 465.45454545455 424.72727272727h-93.090909090909v-23.272727272727h93.090909090909v-116.36363636364H418.90909090909zM372.36363636364 29.090909090909L325.81818181818 29.090909090909L325.81818181818 -17.454545454545L372.36363636364 -17.454545454545L372.36363636364 -64L418.90909090909 -64L418.90909090909 -17.454545454545L465.45454545455 -17.454545454545L465.45454545455 29.090909090909L418.90909090909 29.090909090909L418.90909090909 75.636363636364L372.36363636364 75.636363636364Z"/><glyph unicode="&#xE009;" glyph-name="add152" horiz-adv-x="489" d="M372.36363636364 29.090909090909L325.81818181818 29.090909090909L325.81818181818 -17.454545454545L372.36363636364 -17.454545454545L372.36363636364 -64L418.90909090909 -64L418.90909090909 -17.454545454545L465.45454545455 -17.454545454545L465.45454545455 29.090909090909L418.90909090909 29.090909090909L418.90909090909 75.636363636364L372.36363636364 75.636363636364ZM442.18181818182 261.81818181818h23.272727272727c12.846545454545 0 23.272727272727 10.193454545455 23.272727272727 23.342545454545V401.38472727273C488.72727272727 414.27781818182 478.39418181818 424.72727272727 465.45454545455 424.72727272727h-93.090909090909v-328.75054545455 C379.81090909091 97.885090909091 387.60727272727 98.909090909091 395.63636363636 98.909090909091c16.965818181818 0 32.861090909091 -4.5381818181818 46.545454545455 -12.450909090909V261.81818181818zM325.65527272727 448H23.458909090909C10.496 448 0 437.78327272727 0 424.68072727273v-465.33818181818C0 -53.550545454545 10.449454545455 -64 23.458909090909 -64 h302.19636363636c2.5134545454545 0 4.9338181818182 0.39563636363636 7.1912727272727 1.0938181818182C314.22836363636 -45.870545454545 302.54545454545 -21.387636363636 302.54545454545 5.8181818181818c0 34.466909090909 18.711272727273 64.535272727273 46.545454545455 80.64V424.68072727273 C349.09090909091 437.55054545455 338.64145454545 448 325.65527272727 448z"/><glyph unicode="&#xE00A;" glyph-name="add153" horiz-adv-x="512" d="M512 192c0 141.38181818182 -114.61818181818 256 -256 256C114.61818181818 448 0 333.38181818182 0 192c0 -141.38181818182 114.61818181818 -256 256 -256 C397.38181818182 -64 512 50.618181818182 512 192zM104.72727272727 180.36363636364v23.272727272727h139.63636363636v139.63636363636h23.272727272727v-139.63636363636h139.63636363636v-23.272727272727h-139.63636363636v-139.63636363636h-23.272727272727v139.63636363636H104.72727272727z"/><glyph unicode="&#xE00B;" glyph-name="add154" horiz-adv-x="512" d="M267.63636363636 40.727272727273L267.63636363636 180.36363636364L407.27272727273 180.36363636364L407.27272727273 203.63636363636L267.63636363636 203.63636363636L267.63636363636 343.27272727273L244.36363636364 343.27272727273L244.36363636364 203.63636363636L104.72727272727 203.63636363636L104.72727272727 180.36363636364L244.36363636364 180.36363636364L244.36363636364 40.727272727273ZM512 192c0 141.38181818182 -114.61818181818 256 -256 256C114.61818181818 448 0 333.38181818182 0 192c0 -141.38181818182 114.61818181818 -256 256 -256 C397.38181818182 -64 512 50.618181818182 512 192zM23.272727272727 192C23.272727272727 320.53527272727 127.46472727273 424.72727272727 256 424.72727272727c128.53527272727 0 232.72727272727 -104.192 232.72727272727 -232.72727272727s-104.192 -232.72727272727 -232.72727272727 -232.72727272727C127.46472727273 -40.727272727273 23.272727272727 63.464727272727 23.272727272727 192z"/><glyph unicode="&#xE00C;" glyph-name="alarm30" horiz-adv-x="468" d="M127.30196419092 428.99860045365c-16.802277882342 21.521741228705 -47.935910429033 25.302253752232 -69.334105496839 8.5741035664302L18.927271849814 407.08151151006 c-21.497031996525 -16.777568650162 -25.203416823512 -47.911201196853 -8.4505574055306 -69.358814729019L25.672892234931 318.27653105545l116.82524974663 91.275903672603L134.88769847015 419.26316297476L127.30196419092 428.99860045365zM11.835722214179 183.09232179914c0 -74.64659041552 36.767337483712 -140.69436803243 93.203223782636 -181.04454418223l-49.047825877129 -48.82544278751l17.29646252594 -17.2223348294 l52.902466097196 52.680083007577c31.973746440809 -17.815356401718 68.815211621061 -27.970850827663 108.02876309058 -27.970850827663c38.422856039766 0 74.547753486801 9.7354374788862 106.07673374837 26.883644611747l51.81525988128 -51.592876791661l17.29646252594 17.2223348294l-47.787655035954 47.589981178515 c57.42425558612 40.20192075672 94.98228849959 106.86742917813 94.98228849959 182.28000579123c0 122.82959316635 -99.553496452874 222.38308961923 -222.38308961923 222.38308961923C111.41392789923 405.47541141837 11.835722214179 305.89720573331 11.835722214179 183.09232179914zM258.92804401332 183.28999565658v-24.808069108634h-0.12354616089957 v-0.098836928719656H234.21881183341v0.098836928719656h-98.836928719656v24.808069108634h98.836928719656V331.34771487863h24.585686019015v-148.05771922205H258.92804401332zM450.37517494329 328.01196853434l7.5857342792336 9.7354374788862c16.802277882342 21.521741228705 12.947637662275 52.630664543217 -8.4505574055306 69.358814729019l-39.015877612084 30.491192510014 c-21.497031996525 16.777568650162 -52.605955311037 12.873509965735 -69.334105496839 -8.5741035664302l-15.196177790647 -19.446165725592L442.78944066406 318.27653105545L450.37517494329 328.01196853434z"/><glyph unicode="&#xE00D;" glyph-name="arrow591" horiz-adv-x="512" d="M512 448L0 273.45454545455L256 192.95418181818L337.45454545455 -64Z"/><glyph unicode="&#xE00E;" glyph-name="arrow594" horiz-adv-x="512" d="M512 192c0 141.38181818182 -114.61818181818 256 -256 256C114.61818181818 448 0 333.38181818182 0 192c0 -141.38181818182 114.61818181818 -256 256 -256 C397.38181818182 -64 512 50.618181818182 512 192zM275.15345454545 313.71636363636l33.047272727273 -33.047272727273L217.71636363636 190.13818181818l98.583272727273 -98.583272727273l-32.907636363636 -32.907636363636L151.73818181818 190.30109090909L275.15345454545 313.71636363636z"/><glyph unicode="&#xE00F;" glyph-name="attachment14" horiz-adv-x="209" d="M46.545454545455 350.72v-296.96c0 0 -4.3287272727273 -62.324363636364 59.136 -62.324363636364C162.90909090909 -8.5643636363636 162.90909090909 53.76 162.90909090909 53.76V366.08 C162.90909090909 366.08 162.90909090909 448 81.454545454545 448S0 366.08 0 366.08v-312.32c0 0 0 -117.76 104.72727272727 -117.76S209.45454545455 53.76 209.45454545455 53.76V366.08c0 12.8 -23.272727272727 12.8 -23.272727272727 0v-312.32c0 0 8.4712727272727 -94.487272727273 -81.454545454545 -94.487272727273 C23.272727272727 -40.727272727273 23.272727272727 53.76 23.272727272727 53.76V366.08C23.272727272727 366.08 23.272727272727 424.72727272727 81.454545454545 424.72727272727S139.63636363636 366.08 139.63636363636 366.08v-312.32c0 0 0 -36.724363636364 -33.954909090909 -36.724363636364C71.726545454545 17.035636363636 69.818181818182 53.76 69.818181818182 53.76V350.72 C69.818181818182 363.52 46.545454545455 363.52 46.545454545455 350.72z"/><glyph unicode="&#xE010;" glyph-name="attachment16" horiz-adv-x="465" d="M334.54545454545 344.11054545455c10.007272727273 10.472727272727 -10.007272727273 31.394909090909 -20.037818181818 20.922181818182L82.199272727273 122.32145454545 c0 0 -52.061090909091 -54.411636363636 -4.0029090909091 -104.61090909091c48.058181818182 -50.222545454545 100.14254545455 4.1890909090909 100.14254545455 4.1890909090909L422.67927272727 277.15490909091c0 0 64.093090909091 66.955636363636 -4.0029090909091 138.10036363636 c-68.096 71.144727272727 -132.18909090909 4.1890909090909 -132.18909090909 4.1890909090909L42.146909090909 164.16581818182c0 0 -92.113454545455 -96.256 -4.0029090909091 -188.32290909091c88.110545454545 -92.066909090909 180.24727272727 4.1890909090909 180.24727272727 4.1890909090909L462.73163636364 235.31054545455 c10.007272727273 10.449454545455 -10.007272727273 31.394909090909 -20.037818181818 20.922181818182L198.37672727273 0.97745454545458c0 0 -72.098909090909 -75.333818181818 -140.19490909091 -4.1890909090909c-68.096 71.144727272727 4.0029090909091 146.45527272727 4.0029090909091 146.45527272727L306.50181818182 398.52218181818 c0 0 44.055272727273 46.033454545455 92.136727272727 -4.1890909090909c48.058181818182 -50.222545454545 4.0029090909091 -96.256 4.0029090909091 -96.256L158.32436363636 42.821818181818c0 0 -32.046545454545 -33.489454545455 -60.090181818182 -4.1890909090909 c-28.043636363636 29.300363636364 4.0029090909091 62.766545454545 4.0029090909091 62.766545454545L334.54545454545 344.11054545455z"/><glyph unicode="&#xE011;" glyph-name="audio47" horiz-adv-x="672" d="M100 89.6L352 -64V448L100 294.4H33.344C0 294.4 0 260.256 0 260.256v-136.544 c0 0 0 -34.144 33.344 -34.144H100zM32 262.336h67.904L320 384v-384l-220.096 124.256H32V262.336zM384 67.552V32c0 0 96 39.776 96 160s-96 160 -96 160v-35.552c0 0 64 -27.136 64 -124.448 S384 67.552 384 67.552zM576 10.24V-32c0 0 96 46.048 96 224c0 177.952 -96 224 -96 224v-41.536c0 0 64 -35.328 64 -182.464 S576 10.24 576 10.24zM480 40.512V0c0 0 96 52.8 96 192c0 139.2 -96 192 -96 192v-39.168c0 0 64 -41.632 64 -152.832 C544 80.8 480 40.512 480 40.512z"/><glyph unicode="&#xE012;" glyph-name="audio48" horiz-adv-x="480" d="M384 67.552V32c0 0 96 39.776 96 160s-96 160 -96 160v-35.552c0 0 64 -27.136 64 -124.448 S384 67.552 384 67.552zM100 89.6L352 -64V448L100 294.4H33.344C0 294.4 0 260.256 0 260.256v-136.544 c0 0 0 -34.144 33.344 -34.144H100z"/><glyph unicode="&#xE013;" glyph-name="back43" horiz-adv-x="512" d="M512 192c0 141.38181818182 -114.61818181818 256 -256 256C114.61818181818 448 0 333.38181818182 0 192c0 -141.38181818182 114.61818181818 -256 256 -256 C397.38181818182 -64 512 50.618181818182 512 192zM197.81818181818 98.909090909091l-69.818181818182 93.090909090909l69.818181818182 93.090909090909h23.272727272727l-64 -81.454545454545h226.90909090909v-23.226181818182H157.09090909091L221.09090909091 98.909090909091H197.81818181818z"/><glyph unicode="&#xE014;" glyph-name="back45" horiz-adv-x="512" d="M512 192c0 141.38181818182 -114.61818181818 256 -256 256C114.61818181818 448 0 333.38181818182 0 192c0 -141.38181818182 114.61818181818 -256 256 -256 C397.38181818182 -64 512 50.618181818182 512 192zM23.272727272727 192C23.272727272727 320.53527272727 127.46472727273 424.72727272727 256 424.72727272727c128.53527272727 0 232.72727272727 -104.192 232.72727272727 -232.72727272727s-104.192 -232.72727272727 -232.72727272727 -232.72727272727C127.46472727273 -40.727272727273 23.272727272727 63.464727272727 23.272727272727 192zM384 180.41018181818L384 203.63636363636L157.09090909091 203.63636363636L221.09090909091 285.09090909091L197.81818181818 285.09090909091L128 192L197.81818181818 98.909090909091L221.09090909091 98.909090909091L157.09090909091 180.41018181818Z"/><glyph unicode="&#xE015;" glyph-name="back48" horiz-adv-x="707" d="M0 160.96L307.168 -64v155.136c0 0 393.632 -2.432 399.648 356.864 C507.84 116.832 307.168 230.784 307.168 230.784l0.032 155.136L0 160.96z"/><glyph unicode="&#xE016;" glyph-name="battery140" horiz-adv-x="279" d="M162.90909090909 448H116.36363636364C93.090909090909 448 93.090909090909 413.02109090909 92.392727272727 413.02109090909V401.45454545455H50.781090909091C50.781090909091 401.45454545455 0 401.45454545455 0 352.46545454545v-367.47636363636 C0 -63.604363636364 50.781090909091 -64 50.781090909091 -64h177.71054545455c0 0 50.781090909091 0 50.781090909091 48.989090909091V352.46545454545C279.27272727273 401.45454545455 228.49163636364 401.45454545455 228.49163636364 401.45454545455H186.18181818182V413.02109090909C186.18181818182 413.02109090909 186.18181818182 448 162.90909090909 448zM212.03781818182 354.90909090909 C212.03781818182 354.90909090909 232.72727272727 354.90909090909 232.72727272727 333.00945454545v-328.56436363636C232.72727272727 -17.454545454545 212.03781818182 -17.454545454545 212.03781818182 -17.454545454545H67.234909090909C67.234909090909 -17.454545454545 46.545454545455 -17.454545454545 46.545454545455 4.4450909090909V333.00945454545C46.545454545455 355.584 67.234909090909 354.90909090909 67.234909090909 354.90909090909H212.03781818182z"/><glyph unicode="&#xE017;" glyph-name="battery141" horiz-adv-x="279" d="M162.90909090909 448H116.36363636364C93.090909090909 448 93.090909090909 413.02109090909 92.392727272727 413.02109090909V401.45454545455H50.781090909091C50.781090909091 401.45454545455 0 401.45454545455 0 352.46545454545v-367.47636363636 C0 -63.604363636364 50.781090909091 -64 50.781090909091 -64h177.71054545455c0 0 50.781090909091 0 50.781090909091 48.989090909091V352.46545454545C279.27272727273 401.45454545455 228.49163636364 401.45454545455 228.49163636364 401.45454545455H186.18181818182V413.02109090909C186.18181818182 413.02109090909 186.18181818182 448 162.90909090909 448zM212.03781818182 354.90909090909 C212.03781818182 354.90909090909 232.72727272727 354.90909090909 232.72727272727 333.00945454545v-328.56436363636C232.72727272727 -17.454545454545 212.03781818182 -17.454545454545 212.03781818182 -17.454545454545H67.234909090909C67.234909090909 -17.454545454545 46.545454545455 -17.454545454545 46.545454545455 4.4450909090909V333.00945454545C46.545454545455 355.584 67.234909090909 354.90909090909 67.234909090909 354.90909090909H212.03781818182zM138.65890909091 29.090909090909L186.18181818182 184.48290909091L138.65890909091 178.36218181818L138.65890909091 285.09090909091L93.090909090909 134.28363636364L138.65890909091 148.61963636364Z"/><glyph unicode="&#xE018;" glyph-name="battery142" horiz-adv-x="279" d="M138.65890909091 52.363636363636L186.18181818182 207.75563636364L138.65890909091 201.63490909091L138.65890909091 308.36363636364L93.090909090909 157.55636363636L138.65890909091 171.89236363636ZM162.90909090909 448H116.36363636364C93.090909090909 448 93.090909090909 413.02109090909 92.392727272727 413.02109090909H186.18181818182C186.18181818182 413.02109090909 186.18181818182 448 162.90909090909 448zM0 352.46545454545v-367.47636363636C0 -63.604363636364 50.781090909091 -64 50.781090909091 -64h177.71054545455c0 0 50.781090909091 0 50.781090909091 48.989090909091 V352.46545454545C279.27272727273 401.45454545455 228.49163636364 401.45454545455 228.49163636364 401.45454545455H50.781090909091C50.781090909091 401.45454545455 0 401.45454545455 0 352.46545454545zM230.144 378.18181818182C230.144 378.18181818182 256 378.18181818182 256 353.536v-369.61745454545C256 -40.727272727273 230.144 -40.727272727273 230.144 -40.727272727273H49.128727272727 C49.128727272727 -40.727272727273 23.272727272727 -40.727272727273 23.272727272727 -16.081454545455V353.536C23.272727272727 378.94981818182 49.128727272727 378.18181818182 49.128727272727 378.18181818182H230.144z"/><glyph unicode="&#xE019;" glyph-name="birthday16" horiz-adv-x="609" d="M152.07783783784 448C129.74356756757 421.68043243243 138.37837837838 406.62486486486 152.07783783784 406.48648648649C166.13708108108 406.34810810811 174.79956756757 421.68043243243 152.07783783784 448zM304.29405405405 448c-22.306594594595 -26.319567567568 -13.699459459459 -41.375135135135 0 -41.513513513514 C318.3532972973 406.34810810811 327.01578378378 421.68043243243 304.29405405405 448zM456.51027027027 448c-22.306594594595 -26.319567567568 -13.699459459459 -41.375135135135 0 -41.513513513514 C470.56951351351 406.34810810811 479.232 421.68043243243 456.51027027027 448zM138.37837837838 392.64864864865l27.675675675676 0l0 -110.7027027027l-27.675675675676 0ZM442.81081081081 392.64864864865l27.675675675676 0l0 -110.7027027027l-27.675675675676 0ZM290.59459459459 392.64864864865l27.675675675676 0l0 -110.7027027027l-27.675675675676 0ZM0 212.53535135135v-220.93491891892C0 -39.119567567568 24.631351351351 -64 55.10227027027 -64h498.66032432432 c30.443243243243 0 55.10227027027 24.963459459459 55.10227027027 55.600432432432V212.53535135135C608.86486486486 243.22767567568 584.23351351351 268.10810810811 553.76259459459 268.10810810811H55.10227027027C24.659027027027 268.10810810811 0 243.14464864865 0 212.53535135135zM581.18918918919 -8.3995675675676 c0 -15.415351351351 -12.371027027027 -27.924756756757 -27.426594594595 -27.924756756757H55.10227027027C39.991351351351 -36.324324324324 27.675675675676 -23.897945945946 27.675675675676 -8.3995675675676v121.91135135135c11.623783783784 -8.7178378378378 23.109189189189 -15.526054054054 34.317837837838 -19.926486486486 C70.905081081081 90.098162162162 79.512216216216 88.216216216216 87.814918918919 88.216216216216c19.179243243243 0 33.017081081081 7.9982702702703 54.410378378378 26.624c2.5738378378378 2.2417297297297 2.5738378378378 2.2417297297297 5.12 4.4834594594595 C168.01902702703 137.47891891892 178.23135135135 143.56756756757 191.5987027027 143.56756756757c13.561081081081 0 24.492972972973 -6.0886486486486 47.989621621622 -24.686702702703c1.7435675675676 -1.3837837837838 1.7435675675676 -1.3837837837838 3.5148108108108 -2.7675675675676C268.288 96.242162162162 283.03913513514 88.216216216216 303.35308108108 88.216216216216 c21.31027027027 0 35.729297297297 8.0536216216216 64.844108108108 30.581621621622c1.9926486486486 1.5221621621622 1.9926486486486 1.5221621621622 3.9299459459459 3.0443243243243C392.71783783784 137.67264864865 403.70508108108 143.56756756757 415.13513513514 143.56756756757 c10.904216216216 0 21.061189189189 -6.060972972973 43.699891891892 -24.548324324324c1.8819459459459 -1.5221621621622 1.8819459459459 -1.5221621621622 3.7638918918919 -3.072C486.78745945946 96.269837837838 500.90205405405 88.216216216216 519.44475675676 88.216216216216 c10.765837837838 0 22.278918918919 3.4594594594595 34.62227027027 9.7141621621622c8.7731891891892 4.4281081081081 17.850810810811 10.212324324324 27.122162162162 17.075891891892V-8.3995675675676zM581.18918918919 212.53535135135v-62.048864864865c-3.8745945945946 -3.3487567567568 -7.8875675675676 -6.6421621621622 -11.955891891892 -9.7971891891892 c-9.6864864864865 -7.5277837837838 -19.040864864865 -13.699459459459 -27.648 -18.044540540541C532.78443243243 118.1612972973 525.2012972973 115.89189189189 519.44475675676 115.89189189189c-9.8525405405405 0 -20.147891891892 5.8949189189189 -39.382486486486 21.531675675676 c-1.8542702702703 1.4944864864865 -1.8542702702703 1.4944864864865 -3.7085405405405 3.0443243243243C448.4012972973 163.27264864865 435.03394594595 171.24324324324 415.13513513514 171.24324324324c-19.677405405405 0 -34.539243243243 -7.9705945945946 -59.862486486486 -27.481945945946 c-2.0203243243243 -1.5498378378378 -2.0203243243243 -1.5498378378378 -3.9852972972973 -3.0996756756757C327.18183783784 122.00821621622 316.19459459459 115.89189189189 303.35308108108 115.89189189189c-11.983567567568 0 -22.694054054054 5.8118918918919 -43.146378378378 21.946810810811 c-1.7158918918919 1.3561081081081 -1.7158918918919 1.3561081081081 -3.4594594594595 2.7398918918919C228.352 163.07891891892 213.71156756757 171.24324324324 191.5987027027 171.24324324324c-22.417297297297 0 -36.947027027027 -8.6624864864865 -62.519351351351 -31.107459459459 c-2.5461621621622 -2.2417297297297 -2.5461621621622 -2.2417297297297 -5.036972972973 -4.4004324324324C107.43697297297 121.26097297297 98.165621621622 115.89189189189 87.814918918919 115.89189189189c-4.5664864864865 0 -9.8525405405405 1.1623783783784 -15.747459459459 3.4594594594595 c-10.406054054054 4.0683243243243 -22.002162162162 11.430054054054 -34.013405405405 21.144216216216C34.511567567568 143.37383783784 31.052108108108 146.36281081081 27.675675675676 149.40713513514V212.53535135135C27.675675675676 227.9507027027 40.046702702703 240.43243243243 55.10227027027 240.43243243243h498.66032432432 C568.87351351351 240.43243243243 581.18918918919 228.00605405405 581.18918918919 212.53535135135z"/><glyph unicode="&#xE01A;" glyph-name="birthday17" horiz-adv-x="609" d="M0 212.50767567568V143.56756756757v-144.30097297297C0 -64 62.436324324324 -64 62.436324324324 -64h483.96454054054 c0 0 62.436324324324 0 62.436324324324 63.266594594595V143.56756756757V212.50767567568C608.86486486486 268.10810810811 562.03762162162 268.10810810811 562.03762162162 268.10810810811H46.827243243243C46.827243243243 268.10810810811 0 268.10810810811 0 212.50767567568zM577.6467027027 212.50767567568v-77.934702702703 c-18.902486486486 -12.149621621622 -43.035675675676 -24.631351351351 -62.436324324324 -24.631351351351c-37.888 0 -70.572972972973 47.436108108108 -109.29124324324 47.436108108108c-38.690594594595 0 -69.272216216216 -47.436108108108 -109.29124324324 -47.436108108108 c-39.991351351351 0 -67.500972972973 47.436108108108 -109.29124324324 47.436108108108c-41.79027027027 0 -63.571027027027 -47.436108108108 -101.4867027027 -47.436108108108c-18.016864864865 0 -38.303135135135 10.710486486486 -54.631783783784 21.974486486486V212.50767567568 c0 27.786378378378 15.609081081081 27.786378378378 15.609081081081 27.786378378378h515.1827027027C562.03762162162 240.32172972973 577.6467027027 240.32172972973 577.6467027027 212.50767567568zM152.07783783784 448C129.74356756757 421.68043243243 138.37837837838 406.62486486486 152.07783783784 406.48648648649C166.13708108108 406.34810810811 174.79956756757 421.68043243243 152.07783783784 448zM138.37837837838 392.64864864865l27.675675675676 0l0 -110.7027027027l-27.675675675676 0ZM290.59459459459 392.64864864865l27.675675675676 0l0 -110.7027027027l-27.675675675676 0ZM456.51027027027 448c-22.306594594595 -26.319567567568 -13.699459459459 -41.375135135135 0 -41.513513513514 C470.56951351351 406.34810810811 479.232 421.68043243243 456.51027027027 448zM442.81081081081 392.64864864865l27.675675675676 0l0 -110.7027027027l-27.675675675676 0ZM304.29405405405 448c-22.306594594595 -26.319567567568 -13.699459459459 -41.375135135135 0 -41.513513513514 C318.3532972973 406.34810810811 327.01578378378 421.68043243243 304.29405405405 448z"/><glyph unicode="&#xE01B;" glyph-name="black375" horiz-adv-x="803" d="M0 82.270062058635c0 -72.495898423568 54.271488693915 -132.64740709038 125.56216563236 -144.26135958342l25.127041871745 -2.0087024752122h248.56780084171L404.26050360225 -63.306084599472 l248.56780084171 -0.69391540052785l25.127041871745 2.0087024752122C749.20950139097 -50.377345031743 803.48099008488 9.7741636350667 803.48099008488 82.270062058635c0 63.69412939582 -41.927098937157 117.89257436336 -100.4716456238 137.97959911549C700.89107639632 346.39617661745 594.90462943149 448 464.52157785862 448 c-94.043797703117 0 -175.37798701762 -52.847136029674 -214.23724944718 -129.65261430915C231.91383122905 338.06919181111 205.32591482987 350.48662529424 175.74320564948 350.48662529424c-55.476710179043 0 -100.43512376061 -43.680148370069 -100.43512376061 -97.513374705756c0 -14.060917326485 3.0678365075968 -27.427919252443 8.5461159854483 -39.516655966902 C34.184463941793 189.57129609815 0 139.79199657608 0 82.270062058635z"/><glyph unicode="&#xE01C;" glyph-name="black379" horiz-adv-x="512" d="M232.72727272727 448v-46.545454545455H13.474909090909C13.474909090909 401.45454545455 0 401.45454545455 0 389.81818181818C0 378.18181818182 13.474909090909 378.18181818182 13.474909090909 378.18181818182h485.05018181818 C498.52509090909 378.18181818182 512 378.18181818182 512 389.81818181818C512 401.45454545455 498.52509090909 401.45454545455 498.52509090909 401.45454545455H279.27272727273V448H232.72727272727zM78.033454545455 354.90909090909C78.033454545455 354.90909090909 23.272727272727 354.90909090909 23.272727272727 301.70763636364v-265.984C23.272727272727 -17.454545454545 78.033454545455 -17.454545454545 78.033454545455 -17.454545454545h355.93309090909 c0 0 54.760727272727 0 54.760727272727 53.201454545455V301.70763636364C488.72727272727 354.90909090909 433.96654545455 354.90909090909 433.96654545455 354.90909090909H78.033454545455zM162.90909090909 52.363636363636c-38.562909090909 0 -69.818181818182 31.255272727273 -69.818181818182 69.818181818182c0 38.562909090909 31.255272727273 69.818181818182 69.818181818182 69.818181818182v-69.818181818182h69.818181818182 C232.72727272727 83.618909090909 201.472 52.363636363636 162.90909090909 52.363636363636zM302.54545454545 52.363636363636h-23.272727272727v23.272727272727h23.272727272727V52.363636363636zM302.54545454545 122.18181818182h-23.272727272727v23.272727272727h23.272727272727V122.18181818182zM302.54545454545 192h-23.272727272727v23.272727272727h23.272727272727V192zM418.90909090909 52.363636363636h-93.090909090909v23.272727272727h93.090909090909V52.363636363636zM418.90909090909 122.18181818182h-93.090909090909v23.272727272727h93.090909090909V122.18181818182zM418.90909090909 192h-93.090909090909v23.272727272727h93.090909090909V192zM418.90909090909 261.81818181818H93.090909090909V285.09090909091h325.81818181818V261.81818181818zM13.474909090909 -64h485.05018181818c0 0 13.474909090909 0 13.474909090909 11.636363636364c0 11.636363636364 -13.474909090909 11.636363636364 -13.474909090909 11.636363636364H13.474909090909 C13.474909090909 -40.727272727273 0 -40.727272727273 0 -52.363636363636C0 -64 13.474909090909 -64 13.474909090909 -64z"/><glyph unicode="&#xE01D;" glyph-name="black381" horiz-adv-x="465" d="M27.927272727273 285.09090909091H46.545454545455V354.90909090909H27.927272727273C27.927272727273 354.90909090909 0 354.90909090909 0 320S27.927272727273 285.09090909091 27.927272727273 285.09090909091zM27.927272727273 192H46.545454545455V261.81818181818H27.927272727273C27.927272727273 261.81818181818 0 261.81818181818 0 226.90909090909S27.927272727273 192 27.927272727273 192zM27.927272727273 75.636363636364H46.545454545455v69.818181818182H27.927272727273c0 0 -27.927272727273 0 -27.927272727273 -34.909090909091S27.927272727273 75.636363636364 27.927272727273 75.636363636364zM27.927272727273 -17.454545454545H46.545454545455v69.818181818182H27.927272727273c0 0 -27.927272727273 0 -27.927272727273 -34.909090909091S27.927272727273 -17.454545454545 27.927272727273 -17.454545454545zM69.818181818182 378.368v-419.28145454545C69.818181818182 -53.666909090909 80.267636363636 -64 93.277090909091 -64h302.19636363636 C408.41309090909 -64 418.90909090909 -53.410909090909 418.90909090909 -40.913454545455V378.368C418.90909090909 391.12145454545 408.45963636364 401.45454545455 395.47345454545 401.45454545455H93.277090909091C80.314181818182 401.45454545455 69.818181818182 390.86545454545 69.818181818182 378.368zM465.45454545455 -17.454545454545L465.45454545455 448L116.36363636364 448L116.36363636364 426.17018181818L444.18327272727 426.17018181818L444.18327272727 -17.454545454545Z"/><glyph unicode="&#xE01E;" glyph-name="black382" horiz-adv-x="563" d="M128 396.8C128 425.0769792 139.4615104 448 153.6 448C167.7384896 448 179.2 425.0769792 179.2 396.8C179.2 368.5230208 167.7384896 345.6 153.6 345.6C139.4615104 345.6 128 368.5230208 128 396.8ZM102.4 396.8H25.6512C11.2384 396.8 0 385.408 0 371.3792v-409.9328C0 -52.608 11.4944 -64 25.6512 -64 h511.872C551.9616 -64 563.2 -52.608 563.2 -38.5792V371.3792C563.2 385.408 551.7056 396.8 537.5488 396.8H460.8c0 -42.4192 -22.912 -76.8 -51.2 -76.8s-51.2 34.3808 -51.2 76.8h-25.6 c0 -42.4192 -22.9376 -76.8 -51.2 -76.8C253.312 320 230.4 354.3808 230.4 396.8H204.8c0 -42.4192 -22.912 -76.8 -51.2 -76.8S102.4 354.3808 102.4 396.8zM128 263.68C128 266.5216 130.5088 268.8 133.6064 268.8h296.0128 C432.7168 268.8 435.2 266.496 435.2 263.68v-15.36C435.2 245.4784 432.6912 243.2 429.5936 243.2H133.6064C130.4576 243.2 128 245.4784 128 248.32V263.68zM128 161.28C128 164.1216 130.5088 166.4 133.6064 166.4 h296.0128C432.7168 166.4 435.2 164.096 435.2 161.28v-15.36c0 -2.8416 -2.5088 -5.12 -5.6064 -5.12H133.6064C130.4576 140.8 128 143.0784 128 145.92V161.28zM128 58.88 C128 61.7216 130.5088 64 133.6064 64h296.0128C432.7168 64 435.2 61.696 435.2 58.88v-15.36c0 -2.8416 -2.5088 -5.12 -5.6064 -5.12H133.6064C130.4576 38.4 128 40.704 128 43.52 V58.88zM384 396.8C384 425.0769792 395.4615104 448 409.6 448C423.7384896 448 435.2 425.0769792 435.2 396.8C435.2 368.5230208 423.7384896 345.6 409.6 345.6C395.4615104 345.6 384 368.5230208 384 396.8ZM256 396.8C256 425.0769792 267.4615104 448 281.6 448C295.7384896 448 307.2 425.0769792 307.2 396.8C307.2 368.5230208 295.7384896 345.6 281.6 345.6C267.4615104 345.6 256 368.5230208 256 396.8Z"/><glyph unicode="&#xE01F;" glyph-name="black385" horiz-adv-x="563" d="M25.6 396.8l512 0l0 -25.6l-512 0ZM51.2 448l460.8 0l0 -25.6l-460.8 0ZM0 342.2976v-402.9952C0 -62.5152 1.6128 -64 3.6096 -64h556.0064 C561.5872 -64 563.2 -62.5152 563.2 -60.6976V342.2976C563.2 344.1152 561.5872 345.6 559.5904 345.6H3.6096C1.6128 345.6 0 344.1152 0 342.2976z"/><glyph unicode="&#xE020;" glyph-name="blackboard10" horiz-adv-x="396" d="M11.640067294139 5.6774428227163h165.80111853772l-48.958123039149 -69.677442822716h23.489655799573L200.93084163143 5.6774428227163h9.288773700723l48.934842904561 -69.677442822716h23.489655799573 L233.73255126631 5.6774428227163h150.38966944028c0 0 11.640067294139 -2.0719319783568 11.640067294139 10.592461237667C395.76228800073 28.957577410994 384.12222070659 28.957577410994 384.12222070659 28.957577410994h-372.48215341245c0 0 -11.640067294139 0 -11.640067294139 -12.664393216023C0 3.6055108443596 11.640067294139 5.6774428227163 11.640067294139 5.6774428227163zM186.24107670622 448L186.24107670622 424.71986541172L162.96094211795 424.71986541172L162.96094211795 401.43973082344L232.80134588278 401.43973082344L232.80134588278 424.71986541172L209.5212112945 424.71986541172L210.73177829309 448ZM0 331.59932705861v-232.80134588278c0 -46.560269176556 46.560269176556 -46.560269176556 46.560269176556 -46.560269176556h302.64174964762c0 0 46.560269176556 0 46.560269176556 46.560269176556V331.59932705861c0 46.560269176556 -46.560269176556 46.560269176556 -46.560269176556 46.560269176556H46.560269176556C46.560269176556 378.15959623517 0 378.15959623517 0 331.59932705861zM116.40067294139 98.797981175829 c-38.575183012777 0 -69.840403764834 31.265220752057 -69.840403764834 69.840403764834c0 38.575183012777 31.265220752057 69.840403764834 69.840403764834 69.840403764834v-69.840403764834h69.840403764834C186.24107670622 130.06320192789 154.97585595417 98.797981175829 116.40067294139 98.797981175829zM349.20201882417 122.07811576411h-116.40067294139v23.280134588278h116.40067294139V122.07811576411zM349.20201882417 191.91851952894h-116.40067294139v23.280134588278h116.40067294139V191.91851952894zM349.20201882417 285.03905788205H46.560269176556V331.59932705861h302.64174964762V285.03905788205z"/><glyph unicode="&#xE021;" glyph-name="blackboard11" horiz-adv-x="512" d="M232.72727272727 448v-46.545454545455H13.474909090909C13.474909090909 401.45454545455 0 401.45454545455 0 389.81818181818C0 378.18181818182 13.474909090909 378.18181818182 13.474909090909 378.18181818182h485.05018181818 C498.52509090909 378.18181818182 512 378.18181818182 512 389.81818181818C512 401.45454545455 498.52509090909 401.45454545455 498.52509090909 401.45454545455H279.27272727273V448H232.72727272727zM78.033454545455 354.90909090909C78.033454545455 354.90909090909 23.272727272727 354.90909090909 23.272727272727 301.70763636364v-265.984C23.272727272727 -17.454545454545 78.033454545455 -17.454545454545 78.033454545455 -17.454545454545h355.93309090909 c0 0 54.760727272727 0 54.760727272727 53.201454545455V301.70763636364C488.72727272727 354.90909090909 433.96654545455 354.90909090909 433.96654545455 354.90909090909H78.033454545455zM13.474909090909 -64h485.05018181818c0 0 13.474909090909 0 13.474909090909 11.636363636364c0 11.636363636364 -13.474909090909 11.636363636364 -13.474909090909 11.636363636364H13.474909090909 C13.474909090909 -40.727272727273 0 -40.727272727273 0 -52.363636363636C0 -64 13.474909090909 -64 13.474909090909 -64z"/><glyph unicode="&#xE022;" glyph-name="blackboard12" horiz-adv-x="396" d="M0 331.59932705861v-232.80134588278c0 -46.560269176556 46.560269176556 -46.560269176556 46.560269176556 -46.560269176556h302.64174964762c0 0 46.560269176556 0 46.560269176556 46.560269176556V331.59932705861c0 46.560269176556 -46.560269176556 46.560269176556 -46.560269176556 46.560269176556H46.560269176556C46.560269176556 378.15959623517 0 378.15959623517 0 331.59932705861zM349.20201882417 122.07811576411H46.560269176556 v23.280134588278h302.64174964762V122.07811576411zM349.20201882417 191.91851952894H46.560269176556v23.280134588278h302.64174964762V191.91851952894zM349.20201882417 285.03905788205H46.560269176556V331.59932705861h302.64174964762V285.03905788205zM186.24107670622 448L186.24107670622 424.71986541172L162.96094211795 424.71986541172L162.96094211795 401.43973082344L232.80134588278 401.43973082344L232.80134588278 424.71986541172L209.5212112945 424.71986541172L210.73177829309 448ZM11.640067294139 5.6774428227163h165.80111853772l-48.958123039149 -69.677442822716h23.489655799573L200.93084163143 5.6774428227163h9.288773700723l48.934842904561 -69.677442822716h23.489655799573 L233.73255126631 5.6774428227163h150.38966944028c0 0 11.640067294139 -2.0719319783568 11.640067294139 10.592461237667C395.76228800073 28.957577410994 384.12222070659 28.957577410994 384.12222070659 28.957577410994h-372.48215341245c0 0 -11.640067294139 0 -11.640067294139 -12.664393216023C0 3.6055108443596 11.640067294139 5.6774428227163 11.640067294139 5.6774428227163z"/><glyph unicode="&#xE023;" glyph-name="blackboard8" horiz-adv-x="512" d="M232.72727272727 448v-46.545454545455H13.474909090909C13.474909090909 401.45454545455 0 401.45454545455 0 389.81818181818C0 378.18181818182 13.474909090909 378.18181818182 13.474909090909 378.18181818182h485.05018181818 C498.52509090909 378.18181818182 512 378.18181818182 512 389.81818181818C512 401.45454545455 498.52509090909 401.45454545455 498.52509090909 401.45454545455H279.27272727273V448H232.72727272727zM78.033454545455 354.90909090909C78.033454545455 354.90909090909 23.272727272727 354.90909090909 23.272727272727 301.70763636364v-265.984C23.272727272727 -17.454545454545 78.033454545455 -17.454545454545 78.033454545455 -17.454545454545h355.93309090909 c0 0 54.760727272727 0 54.760727272727 53.201454545455V301.70763636364C488.72727272727 354.90909090909 433.96654545455 354.90909090909 433.96654545455 354.90909090909H78.033454545455zM139.63636363636 52.363636363636H116.36363636364v23.272727272727h23.272727272727V52.363636363636zM139.63636363636 122.18181818182H116.36363636364v23.272727272727h23.272727272727V122.18181818182zM139.63636363636 192H116.36363636364v23.272727272727h23.272727272727V192zM372.36363636364 52.363636363636H162.90909090909v23.272727272727h209.45454545455 V52.363636363636zM372.36363636364 122.18181818182H162.90909090909v23.272727272727h209.45454545455V122.18181818182zM372.36363636364 192H162.90909090909v23.272727272727h209.45454545455V192zM418.90909090909 261.81818181818H93.090909090909V285.09090909091h325.81818181818V261.81818181818zM13.474909090909 -64h485.05018181818c0 0 13.474909090909 0 13.474909090909 11.636363636364c0 11.636363636364 -13.474909090909 11.636363636364 -13.474909090909 11.636363636364H13.474909090909 C13.474909090909 -40.727272727273 0 -40.727272727273 0 -52.363636363636C0 -64 13.474909090909 -64 13.474909090909 -64z"/><glyph unicode="&#xE024;" glyph-name="blackboard9" horiz-adv-x="396" d="M186.24107670622 448L186.24107670622 424.71986541172L162.96094211795 424.71986541172L162.96094211795 401.43973082344L232.80134588278 401.43973082344L232.80134588278 424.71986541172L209.5212112945 424.71986541172L210.73177829309 448ZM0 331.59932705861v-232.80134588278c0 -46.560269176556 46.560269176556 -46.560269176556 46.560269176556 -46.560269176556h302.64174964762c0 0 46.560269176556 0 46.560269176556 46.560269176556V331.59932705861c0 46.560269176556 -46.560269176556 46.560269176556 -46.560269176556 46.560269176556H46.560269176556C46.560269176556 378.15959623517 0 378.15959623517 0 331.59932705861zM11.640067294139 5.6774428227163h165.80111853772l-48.958123039149 -69.677442822716h23.489655799573L200.93084163143 5.6774428227163h9.3120538353112l48.934842904561 -69.677442822716h23.489655799573L233.73255126631 5.6774428227163 h150.38966944028c0 0 11.640067294139 -2.0719319783568 11.640067294139 10.592461237667C395.76228800073 28.957577410994 384.12222070659 28.957577410994 384.12222070659 28.957577410994h-372.48215341245c0 0 -11.640067294139 0 -11.640067294139 -12.664393216023C0 3.6055108443596 11.640067294139 5.6774428227163 11.640067294139 5.6774428227163z"/><glyph unicode="&#xE025;" glyph-name="blank28" horiz-adv-x="465" d="M27.927272727273 75.636363636364H46.545454545455v69.818181818182H27.927272727273c0 0 -27.927272727273 0 -27.927272727273 -34.909090909091S27.927272727273 75.636363636364 27.927272727273 75.636363636364zM27.927272727273 285.09090909091H46.545454545455V354.90909090909H27.927272727273C27.927272727273 354.90909090909 0 354.90909090909 0 320S27.927272727273 285.09090909091 27.927272727273 285.09090909091zM27.927272727273 192H46.545454545455V261.81818181818H27.927272727273C27.927272727273 261.81818181818 0 261.81818181818 0 226.90909090909S27.927272727273 192 27.927272727273 192zM27.927272727273 -17.454545454545H46.545454545455v69.818181818182H27.927272727273c0 0 -27.927272727273 0 -27.927272727273 -34.909090909091S27.927272727273 -17.454545454545 27.927272727273 -17.454545454545zM69.818181818182 378.368v-419.28145454545C69.818181818182 -53.666909090909 80.267636363636 -64 93.277090909091 -64h302.19636363636 C408.41309090909 -64 418.90909090909 -53.410909090909 418.90909090909 -40.913454545455V378.368C418.90909090909 391.12145454545 408.45963636364 401.45454545455 395.45018181818 401.45454545455H93.277090909091C80.314181818182 401.45454545455 69.818181818182 390.86545454545 69.818181818182 378.368zM395.63636363636 378.18181818182v-418.90909090909H93.090909090909V378.18181818182H395.63636363636zM465.45454545455 -17.454545454545L465.45454545455 448L116.36363636364 448L116.36363636364 426.17018181818L444.18327272727 426.17018181818L444.18327272727 -17.454545454545Z"/><glyph unicode="&#xE026;" glyph-name="board1" horiz-adv-x="396" d="M46.560269176556 145.35825035238l302.64174964762 0l0 -23.280134588278l-302.64174964762 0ZM46.560269176556 215.19865411722l302.64174964762 0l0 -23.280134588278l-302.64174964762 0ZM186.24107670622 448L186.24107670622 424.71986541172L162.96094211795 424.71986541172L162.96094211795 401.43973082344L232.80134588278 401.43973082344L232.80134588278 424.71986541172L209.5212112945 424.71986541172L210.73177829309 448ZM11.640067294139 5.6774428227163h165.80111853772l-48.958123039149 -69.677442822716h23.489655799573L200.93084163143 5.6774428227163h9.3120538353112l48.934842904561 -69.677442822716h23.489655799573L233.73255126631 5.6774428227163 h150.38966944028c0 0 11.640067294139 -2.0719319783568 11.640067294139 10.592461237667C395.76228800073 28.957577410994 384.12222070659 28.957577410994 384.12222070659 28.957577410994h-372.48215341245c0 0 -11.640067294139 0 -11.640067294139 -12.664393216023C0 3.6055108443596 11.640067294139 5.6774428227163 11.640067294139 5.6774428227163zM0 331.59932705861v-232.80134588278c0 -46.560269176556 46.560269176556 -46.560269176556 46.560269176556 -46.560269176556h302.64174964762c0 0 46.560269176556 0 46.560269176556 46.560269176556V331.59932705861c0 46.560269176556 -46.560269176556 46.560269176556 -46.560269176556 46.560269176556H46.560269176556C46.560269176556 378.15959623517 0 378.15959623517 0 331.59932705861zM372.48215341245 331.59932705861v-232.80134588278 c0 -23.280134588278 -23.280134588278 -23.280134588278 -23.280134588278 -23.280134588278H46.560269176556c0 0 -23.280134588278 0 -23.280134588278 23.280134588278V331.59932705861c0 23.280134588278 23.280134588278 23.280134588278 23.280134588278 23.280134588278h302.64174964762C349.20201882417 354.87946164689 372.48215341245 354.87946164689 372.48215341245 331.59932705861zM46.560269176556 331.59932705861l302.64174964762 0l0 -46.560269176556l-302.64174964762 0Z"/><glyph unicode="&#xE027;" glyph-name="book186" horiz-adv-x="593" d="M240.42442105263 -9.5393684210526c33.899789473684 0 45.702736842105 -54.460631578947 45.702736842105 -54.460631578947H296.42105263158h10.293894736842 c0 0 11.802947368421 54.460631578947 45.702736842105 54.460631578947c33.899789473684 0 216.71073684211 0 216.71073684211 0c13.096421052632 0 23.713684210526 10.671157894737 23.713684210526 23.821473684211V394.10526315789c0 53.894736842105 -53.894736842105 53.894736842105 -53.894736842105 53.894736842105h-207.68336842105 C313.82905263158 448 296.42105263158 425.984 296.42105263158 414.85473684211v-0.080842105263158C296.42105263158 425.93010526316 279.36336842105 448 262.27873684211 448H53.894736842105c0 0 -53.894736842105 0 -53.894736842105 -53.894736842105v-379.82315789474c0 -13.150315789474 10.617263157895 -23.821473684211 23.686736842105 -23.821473684211 C23.686736842105 -9.5393684210526 206.52463157895 -9.5393684210526 240.42442105263 -9.5393684210526zM309.89473684211 402.80926315789C309.89473684211 412.88757894737 317.952 421.05263157895 327.73389473684 421.05263157895h225.22610526316c6.6021052631579 0 11.964631578947 -5.4433684210526 11.991578947368 -12.153263157895 L565.89473684211 27.324631578947c0.026947368421053 -6.7098947368421 -5.3625263157895 -12.153263157895 -11.829894736842 -12.153263157895c0 0 -181.27494736842 0 -203.88378947368 0C327.51831578947 15.171368421053 309.89473684211 -10.105263157895 309.89473684211 -10.105263157895V402.80926315789zM27.890526315789 408.89936842105 C27.917473684211 415.60926315789 33.28 421.05263157895 39.882105263158 421.05263157895h225.22610526316C274.89010526316 421.05263157895 282.94736842105 412.88757894737 282.94736842105 402.80926315789V-10.105263157895c0 0 -17.650526315789 25.276631578947 -40.259368421053 25.276631578947c-22.635789473684 0 -203.88378947368 0 -203.88378947368 0 c-6.4673684210526 0 -11.856842105263 5.4433684210526 -11.829894736842 12.153263157895L27.890526315789 408.89936842105z"/><glyph unicode="&#xE028;" glyph-name="book189" horiz-adv-x="593" d="M240.42442105263 -9.5393684210526c33.899789473684 0 45.702736842105 -54.460631578947 45.702736842105 -54.460631578947H296.42105263158h10.293894736842 c0 0 11.802947368421 54.460631578947 45.702736842105 54.460631578947s216.71073684211 0 216.71073684211 0c13.096421052632 0 23.713684210526 10.671157894737 23.713684210526 23.821473684211V394.10526315789c0 53.894736842105 -53.894736842105 53.894736842105 -53.894736842105 53.894736842105h-207.68336842105C313.856 448 296.42105263158 425.984 296.42105263158 414.85473684211v-0.080842105263158 C296.42105263158 425.93010526316 279.36336842105 448 262.27873684211 448H53.894736842105c0 0 -53.894736842105 0 -53.894736842105 -53.894736842105v-379.82315789474c0 -13.150315789474 10.617263157895 -23.821473684211 23.713684210526 -23.821473684211C23.713684210526 -9.5393684210526 206.52463157895 -9.5393684210526 240.42442105263 -9.5393684210526zM322.99115789474 379.31115789474c0 8.8117894736842 7.1949473684211 15.979789473684 15.952842105263 15.979789473684L527.36 394.10526315789c5.9014736842105 0 12.853894736842 -2.7755789473684 12.880842105263 -8.6501052631579v-331.31789473684 c0.026947368421053 -5.8745263157895 -6.9524210526316 -12.611368421053 -12.746105263158 -12.611368421053c0 0 -149.09978947368 1.1856842105263 -169.33726315789 1.1856842105263s-35.166315789474 -24.710736842105 -35.166315789474 -24.710736842105V379.31115789474zM53.517473684211 385.45515789474 C53.517473684211 391.32968421053 60.496842105263 394.10526315789 66.398315789474 394.10526315789l188.416 1.1856842105263c8.7578947368421 0 15.952842105263 -7.1410526315789 15.952842105263 -15.979789473684v-361.28336842105c0 0 -14.928842105263 24.710736842105 -35.166315789474 24.710736842105 c-20.237473684211 0 -169.33726315789 -1.1856842105263 -169.33726315789 -1.1856842105263c-5.7936842105263 0 -12.746105263158 6.7368421052632 -12.746105263158 12.611368421053V385.45515789474z"/><glyph unicode="&#xE029;" glyph-name="bookmark29" horiz-adv-x="279" d="M279.27272727273 403.47927272727C279.27272727273 448 232.72727272727 448 232.72727272727 448H46.545454545455c0 0 -46.545454545455 0 -46.545454545455 -44.520727272727V-64l139.63636363636 133.56218181818L279.27272727273 -64V403.47927272727zM256 -10.472727272727l-116.36363636364 108.8L23.272727272727 -10.472727272727V410.97309090909C23.272727272727 418.58327272727 29.486545454545 424.72727272727 37.143272727273 424.72727272727h205.00945454545C249.76290909091 424.72727272727 256 418.58327272727 256 410.97309090909V-10.472727272727z"/><glyph unicode="&#xE02A;" glyph-name="bookmark30" horiz-adv-x="279" d="M279.27272727273 403.47927272727C279.27272727273 448 232.72727272727 448 232.72727272727 448H46.545454545455c0 0 -46.545454545455 0 -46.545454545455 -44.520727272727V-64l139.63636363636 133.56218181818L279.27272727273 -64V403.47927272727z"/><glyph unicode="&#xE02B;" glyph-name="box59" horiz-adv-x="704" d="M32 352v-379.52C32 -64 67.552 -64 67.552 -64h568.896c0 0 35.552 0 35.552 36.48V352h-32v-384H64 V352H32zM448.096 256C465.728 256 480 270.176 480 287.968V320.032C480 337.696 465.504 352 448.096 352 H255.904C238.272 352 224 337.824 224 320.032v-32.064C224 270.304 238.496 256 255.904 256H448.096zM256 320h192v-32H256V320zM704 416c0 32 -32 32 -32 32H31.84C31.84 448 0 448 0 416c0 -32 31.84 -32 31.84 -32H672 C672 384 704 384 704 416z"/><glyph unicode="&#xE02C;" glyph-name="box60" horiz-adv-x="704" d="M256 320l192 0l0 -32l-192 0ZM64 352H32v-379.52C32 -64 67.552 -64 67.552 -64h568.896c0 0 35.552 0 35.552 36.48V352h-192v-96 H224V352H64zM704 416c0 32 -32 32 -32 32H31.84C31.84 448 0 448 0 416c0 -32 31.84 -32 31.84 -32H672 C672 384 704 384 704 416z"/><glyph unicode="&#xE02D;" glyph-name="button4" horiz-adv-x="536" d="M0 -3.047619047619C0 36.07331352381 21.831448380952 57.904761904762 60.952380952381 57.904761904762C75.692361142857 57.904761904762 97.52380952381 36.07331352381 97.52380952381 -3.047619047619C97.52380952381 -17.787599238095 75.692361142857 -39.619047619048 60.952380952381 -39.619047619048C21.831448380952 -39.619047619048 0 -17.787599238095 0 -3.047619047619ZM219.42857142857 192C219.42857142857 231.12093257143 241.26001980952 252.95238095238 268.19047619048 252.95238095238C295.12093257143 252.95238095238 316.95238095238 231.12093257143 316.95238095238 192C316.95238095238 177.26001980952 295.12093257143 155.42857142857 268.19047619048 155.42857142857C241.26001980952 155.42857142857 219.42857142857 177.26001980952 219.42857142857 192ZM219.42857142857 387.04761904762C219.42857142857 426.16855161905 241.26001980952 448 268.19047619048 448C295.12093257143 448 316.95238095238 426.16855161905 316.95238095238 387.04761904762C316.95238095238 372.30763885714 295.12093257143 350.47619047619 268.19047619048 350.47619047619C241.26001980952 350.47619047619 219.42857142857 372.30763885714 219.42857142857 387.04761904762ZM0 387.04761904762C0 426.16855161905 21.831448380952 448 60.952380952381 448C75.692361142857 448 97.52380952381 426.16855161905 97.52380952381 387.04761904762C97.52380952381 372.30763885714 75.692361142857 350.47619047619 60.952380952381 350.47619047619C21.831448380952 350.47619047619 0 372.30763885714 0 387.04761904762ZM0 192C0 231.12093257143 21.831448380952 252.95238095238 60.952380952381 252.95238095238C75.692361142857 252.95238095238 97.52380952381 231.12093257143 97.52380952381 192C97.52380952381 177.26001980952 75.692361142857 155.42857142857 60.952380952381 155.42857142857C21.831448380952 155.42857142857 0 177.26001980952 0 192ZM219.42857142857 -3.047619047619C219.42857142857 36.07331352381 241.26001980952 57.904761904762 268.19047619048 57.904761904762C295.12093257143 57.904761904762 316.95238095238 36.07331352381 316.95238095238 -3.047619047619C316.95238095238 -17.787599238095 295.12093257143 -39.619047619048 268.19047619048 -39.619047619048C241.26001980952 -39.619047619048 219.42857142857 -17.787599238095 219.42857142857 -3.047619047619ZM414.47619047619 -3.047619047619C414.47619047619 36.07331352381 436.30763885714 57.904761904762 475.42857142857 57.904761904762C490.16855161905 57.904761904762 512 36.07331352381 512 -3.047619047619C512 -17.787599238095 490.16855161905 -39.619047619048 475.42857142857 -39.619047619048C436.30763885714 -39.619047619048 414.47619047619 -17.787599238095 414.47619047619 -3.047619047619ZM414.47619047619 387.04761904762C414.47619047619 426.16855161905 436.30763885714 448 475.42857142857 448C490.16855161905 448 512 426.16855161905 512 387.04761904762C512 372.30763885714 490.16855161905 350.47619047619 475.42857142857 350.47619047619C436.30763885714 350.47619047619 414.47619047619 372.30763885714 414.47619047619 387.04761904762ZM414.47619047619 192C414.47619047619 231.12093257143 436.30763885714 252.95238095238 475.42857142857 252.95238095238C490.16855161905 252.95238095238 512 231.12093257143 512 192C512 177.26001980952 490.16855161905 155.42857142857 475.42857142857 155.42857142857C436.30763885714 155.42857142857 414.47619047619 177.26001980952 414.47619047619 192Z"/><glyph unicode="&#xE02E;" glyph-name="cash14" horiz-adv-x="512" d="M251.8571503268 68.531032679739c-5.9574379084967 0 -10.728575163399 1.628862745098 -14.312575163399 4.9108496732026c-3.420862745098 3.420862745098 -6.3305620915033 9.1465620915033 -8.704 17.152l-17.384575163399 -3.6308496732026 c2.5834248366013 -11.333437908497 6.5865620915033 -19.712 12.008575163399 -25.134849673203s13.312 -8.9834248366013 23.644862745098 -10.682562091503v-15.895424836601h13.847424836601v16.360575163399c8.9131503267974 2.3734379084967 16.035137254902 6.9588496732026 21.340862745098 13.754562091503 c5.376 6.8425620915033 8.0757124183007 14.755137254902 8.0757124183007 23.715137254902c0 9.123137254902 -2.979137254902 16.896 -8.9365751633987 23.319424836601c-2.1174379084967 2.3734379084967 -5.2362875816993 4.8405751633987 -9.4025620915033 7.4005751633987 c-4.1654379084967 2.56 -9.4485751633987 5.283137254902 -15.825150326797 8.192c-7.3771503267974 3.328 -12.288 6.1908496732026 -14.708287581699 8.611137254902c-2.4905620915033 2.467137254902 -3.7237124183007 5.5851503267974 -3.7237124183007 9.3322875816993 c0 4.1194248366013 1.536 7.5402875816993 4.5845751633987 10.286849673203c3.0485751633987 2.7465620915033 6.912 4.1194248366013 11.543424836601 4.1194248366013c7.4934379084967 0 13.544575163399 -4.2122875816993 18.176 -12.660287581699l15.429437908497 8.611137254902 c-3.584 6.4234248366013 -7.3545620915033 11.194562091503 -11.310849673203 14.312575163399c-3.9562875816993 3.1188496732026 -9.0294379084967 5.1668496732026 -15.267137254902 6.1674248366013v15.523137254902h-13.847424836601v-15.499712418301 c-4.259137254902 -1.116862745098 -8.099137254902 -2.6294379084967 -11.473150326797 -4.5845751633987c-3.328 -1.955137254902 -6.1674248366013 -4.259137254902 -8.4714248366013 -6.9354248366013s-4.0491503267974 -5.6085751633987 -5.2597124183007 -8.8905620915033 c-1.2105620915033 -3.2585620915033 -1.8154248366013 -6.7957124183007 -1.8154248366013 -10.588862745098c0 -8.0054379084967 2.56 -14.894849673203 7.68 -20.643137254902c3.2117124183007 -3.84 9.9371503267974 -8.0757124183007 20.154562091503 -12.660287581699 c4.956862745098 -2.2571503267974 9.0294379084967 -4.352 12.218562091503 -6.2837124183007c3.1882875816993 -1.9317124183007 5.6085751633987 -3.6534379084967 7.2374379084967 -5.1894379084967c3.2117124183007 -3.164862745098 4.8171503267974 -7.3545620915033 4.8171503267974 -12.567424836601 c0 -5.8411503267974 -1.9317124183007 -10.612287581699 -5.7717124183007 -14.312575163399C262.5162875817 70.416732026144 257.6522875817 68.531032679739 251.8571503268 68.531032679739zM0 244.70588235294v-256h512V244.70588235294H0zM488.7274248366 11.97845751634H23.272575163399V221.43330718954h465.4548496732V11.97845751634z"/><glyph unicode="&#xE02F;" glyph-name="cellphone54" horiz-adv-x="512" d="M465.45652287582 -34.333281045752C512 -34.333281045752 512 12.139921568627 512 12.139921568627V221.27184313725c0 0 0 46.474039215686 -46.543477124183 46.474039215686H46.543477124183 C0 267.74504575163 0 221.27184313725 0 221.27184313725v-209.13108496732c0 0 0 -46.474039215686 46.543477124183 -46.474039215686H465.45652287582zM469.38352941176 139.94248366013c12.82677124183 0 23.23660130719 -10.409830065359 23.23660130719 -23.23660130719 s-10.409830065359 -23.23660130719 -23.23660130719 -23.23660130719c-12.82677124183 0 -23.23660130719 10.409830065359 -23.23660130719 23.23660130719S456.55675816993 139.94248366013 469.38352941176 139.94248366013zM58.091921568627 244.50844444444h371.78896732026 v-255.60512418301H58.091921568627V244.50844444444zM34.878745098039 63.749019607843c0 -2.8118169934641 -2.3006535947712 -5.1350588235294 -5.1350588235294 -5.1350588235294h-1.3711895424837c-2.8812549019608 0 -5.1350588235294 2.3006535947712 -5.1350588235294 5.1350588235294V169.66274509804 c0 2.8118169934641 2.3006535947712 5.1350588235294 5.1350588235294 5.1350588235294h1.3711895424837c2.9046797385621 0 5.1350588235294 -2.3006535947712 5.1350588235294 -5.1350588235294C34.878745098039 169.66274509804 34.878745098039 63.749019607843 34.878745098039 63.749019607843z"/><glyph unicode="&#xE030;" glyph-name="cellphone56" horiz-adv-x="320" d="M90.048 362.64533333333h97.216C189.888 362.64533333333 192 364.71466666667 192 367.36V368.61866666667 C192 371.22133333333 189.86666666667 373.33333333333 187.28533333333 373.33333333333H90.048C87.445333333333 373.33333333333 85.333333333333 371.264 85.333333333333 368.61866666667V367.36C85.333333333333 364.75733333333 87.466666666667 362.64533333333 90.048 362.64533333333zM106.66666666667 -10.666666666667C106.66666666667 11.782074666667 116.21792533333 21.333333333333 138.66666666667 21.333333333333C139.78207466667 21.333333333333 149.33333333333 11.782074666667 149.33333333333 -10.666666666667C149.33333333333 -11.782074666667 139.78207466667 -21.333333333333 138.66666666667 -21.333333333333C116.21792533333 -21.333333333333 106.66666666667 -11.782074666667 106.66666666667 -10.666666666667ZM320 21.333333333333V405.33333333333c0 42.666666666667 -42.666666666667 42.666666666667 -42.666666666667 42.666666666667H85.333333333333c0 0 -26.88 0 -37.973333333333 -21.333333333333H277.33333333333 c2.3253333333333 0 7.296 -0.832 11.797333333333 -3.072C295.46666666667 420.416 298.66666666667 415.616 298.66666666667 405.33333333333v-421.33333333333C309.33333333333 -10.666666666667 320 0 320 21.333333333333zM0 362.66666666667v-384c0 -42.666666666667 42.666666666667 -42.666666666667 42.666666666667 -42.666666666667h192c0 0 42.666666666667 0 42.666666666667 42.666666666667V362.66666666667c0 42.666666666667 -42.666666666667 42.666666666667 -42.666666666667 42.666666666667H42.666666666667C42.666666666667 405.33333333333 0 405.33333333333 0 362.66666666667zM256 -21.333333333333 c0 -10.282666666667 -3.2 -15.082666666667 -9.536 -18.261333333333C241.96266666667 -41.834666666667 236.992 -42.666666666667 234.66666666667 -42.666666666667H42.666666666667c-2.3253333333333 0 -7.296 0.832 -11.797333333333 3.072C24.533333333333 -36.416 21.333333333333 -31.616 21.333333333333 -21.333333333333v42.666666666667 h234.66666666667V-21.333333333333zM256 42.666666666667H21.333333333333V330.66666666667h234.66666666667V42.666666666667zM246.464 380.928C252.8 377.74933333333 256 372.94933333333 256 362.66666666667v-10.666666666667H21.333333333333V362.66666666667c0 10.282666666667 3.2 15.082666666667 9.536 18.261333333333 C35.370666666667 383.168 40.341333333333 384 42.666666666667 384h192C236.992 384 241.96266666667 383.168 246.464 380.928z"/><glyph unicode="&#xE031;" glyph-name="cellphone57" horiz-adv-x="302" d="M255.60497413089 -64c0 0 46.473631660162 0 46.473631660162 46.543342107652V401.45665789235C302.07860579105 448 255.60497413089 448 255.60497413089 448H46.473631660162c0 0 -46.473631660162 0 -46.473631660162 -46.543342107652v-418.9133157847 c0 -46.543342107652 46.473631660162 -46.543342107652 46.473631660162 -46.543342107652H255.60497413089zM151.03930289553 -44.620495597713c-12.826722338205 0 -23.236815830081 10.410093491876 -23.236815830081 23.236815830081c0 12.826722338205 10.410093491876 23.236815830081 23.236815830081 23.236815830081c12.826722338205 0 23.236815830081 -10.410093491876 23.236815830081 -23.236815830081 C174.27611872561 -34.210402105836 163.86602523373 -44.620495597713 151.03930289553 -44.620495597713zM92.947263320323 419.62784787147C92.947263320323 422.5092130344 95.247708087501 424.76318416992 98.082599618771 424.76318416992h105.89016973768C206.80766088772 424.76318416992 209.13134247073 422.46273940274 209.13134247073 419.62784787147V418.2568757375 c0 -2.9046019787601 -2.300444767178 -5.1353362984479 -5.1353362984479 -5.1353362984479H98.082599618771C95.270944903331 413.12153943905 92.947263320323 415.42198420623 92.947263320323 418.2568757375V419.62784787147zM23.236815830081 389.9079604248h255.60497413089v-371.78905328129H23.236815830081V389.9079604248z"/><glyph unicode="&#xE032;" glyph-name="cellphone58" horiz-adv-x="512" d="M465.45652287582 -11.096679738562C512 -11.096679738562 512 35.377359477124 512 35.377359477124V198.03440522876c0 0 0 46.474039215686 -46.543477124183 46.474039215686H46.543477124183 C0 244.50844444444 0 198.03440522876 0 198.03440522876v-162.65788235294c0 0 0 -46.474039215686 46.543477124183 -46.474039215686H465.45652287582zM469.38352941176 139.94248366013c12.82677124183 0 23.23660130719 -10.409830065359 23.23660130719 -23.23660130719 s-10.409830065359 -23.23660130719 -23.23660130719 -23.23660130719c-12.82677124183 0 -23.23660130719 10.409830065359 -23.23660130719 23.23660130719S456.55675816993 139.94248366013 469.38352941176 139.94248366013zM58.091921568627 221.27184313725h371.78896732026 v-209.13108496732H58.091921568627V221.27184313725zM34.878745098039 84.940967320261c0 -1.6966274509804 -2.3006535947712 -3.0904052287582 -5.1350588235294 -3.0904052287582h-1.3711895424837c-2.8812549019608 0 -5.1350588235294 1.3711895424837 -5.1350588235294 3.0904052287582v63.529830065359 c0 1.6966274509804 2.3006535947712 3.0904052287582 5.1350588235294 3.0904052287582h1.3711895424837c2.9046797385621 0 5.1350588235294 -1.3711895424837 5.1350588235294 -3.0904052287582C34.878745098039 148.47079738562 34.878745098039 84.940967320261 34.878745098039 84.940967320261z"/><glyph unicode="&#xE033;" glyph-name="chat52" horiz-adv-x="606" d="M82.633957391866 34.830213040671l77.593285990962 -90.208736819453c9.9160748870239 -11.541209382397 26.277598450613 -11.431030772541 36.276307295029 0L275.44652463955 34.830213040671h302.90854314612 C593.6148052507 34.830213040671 605.98235420702 47.197761996987 605.98235420702 62.567678071874V420.23499031633C605.98235420702 435.57736173876 593.89025177534 448 578.38261243813 448H27.599741768883C12.367548956316 448 0 435.63245104368 0 420.23499031633v-357.66731224446C0 47.252851301915 12.202281041532 34.830213040671 27.517107811491 34.830213040671 H82.633957391866zM27.544652463955 420.45534753604h550.8930492791v-358.08048203142H267.48612007747l-89.217129330751 -98.114052076609L96.846998063267 62.374865504627H27.544652463955V420.45534753604z"/><glyph unicode="&#xE034;" glyph-name="chat56" horiz-adv-x="715" d="M633.66336633663 123.04442751968h-44.063975628332l-36.525006346789 -49.003300330033L515.60700685453 123.04442751968h-12.348311754252v-32.820512820513l49.815689261234 -56.737242955065l48.353389185072 56.737242955065 H633.66336633663C714.90225945672 90.223914699162 714.90225945672 171.78776339172 714.90225945672 171.78776339172v194.97334348819c0 0 0 81.238893120081 -81.238893120081 81.238893120081h-324.95557248032C227.46890073623 448 227.46890073623 366.82609799441 227.46890073623 366.82609799441L259.96445798426 366.76110687992C259.96445798426 366.76110687992 259.96445798426 415.50444275197 308.70779385631 415.50444275197h324.95557248032C682.40670220868 415.50444275197 682.40670220868 366.76110687992 682.40670220868 366.76110687992v-194.97334348819 C682.40670220868 171.78776339172 682.40670220868 123.04442751968 633.66336633663 123.04442751968zM0 269.33942625032V74.301091647626c0 0 0 -81.563848692562 81.238893120081 -81.563848692562h16.735211982737l57.289667428281 -56.737242955065l56.087331810104 56.737242955065H406.19446560041 c81.238893120081 0 81.238893120081 81.563848692562 81.238893120081 81.563848692562v194.97334348819c0 0 0 81.238893120081 -81.238893120081 81.238893120081h-324.95557248032C0 350.5133282559 0 269.33942625032 0 269.33942625032zM454.93780147245 269.27443513582v-194.97334348819c0 0 0 -49.068291444529 -48.743335872049 -49.068291444529H206.50926631125l-51.732927138868 -49.88068037573 L106.03300330033 25.232800203097H81.238893120081c0 0 -48.743335872049 0 -48.743335872049 49.068291444529v194.97334348819C32.495557248032 318.01777100787 81.238893120081 318.01777100787 81.238893120081 318.01777100787h324.95557248032C454.93780147245 318.01777100787 454.93780147245 269.27443513582 454.93780147245 269.27443513582z"/><glyph unicode="&#xE035;" glyph-name="chocolate4" horiz-adv-x="512" d="M244.992 448C210.71127272727 448 209.45454545455 424.72727272727 209.45454545455 424.72727272727h69.818181818182C279.27272727273 424.72727272727 279.27272727273 448 244.992 448zM0 206.49890909091c0 -33.163636363636 23.272727272727 -60.509090909091 23.272727272727 -60.509090909091s32.558545454545 -43.613090909091 64.930909090909 -43.613090909091 s37.515636363636 35.397818181818 76.683636363636 35.397818181818s60.369454545455 -35.304727272727 84.293818181818 -35.397818181818c23.831272727273 -0.11636363636364 58.810181818182 35.211636363636 83.805090909091 35.397818181818c35.421090909091 0.27927272727273 57.576727272727 -35.025454545455 85.085090909091 -35.397818181818 C445.55636363636 101.98109090909 500.36363636364 145.45454545455 500.36363636364 145.45454545455s11.636363636364 30.580363636364 11.636363636364 61.044363636364C512 236.96290909091 461.26545454545 401.45454545455 256 401.45454545455C50.734545454545 401.45454545455 0 239.66254545455 0 206.49890909091zM333.568 122.18181818182c-29.579636363636 0 -52.968727272727 -34.909090909091 -83.549090909091 -34.909090909091c-30.580363636364 0 -51.595636363636 34.909090909091 -83.549090909091 34.909090909091 c-31.930181818182 0 -48.593454545455 -34.909090909091 -77.568 -34.909090909091S23.272727272727 122.18181818182 23.272727272727 122.18181818182l59.671272727273 -186.18181818182h346.112L488.72727272727 122.18181818182c0 0 -42.658909090909 -34.909090909091 -71.610181818182 -34.909090909091C388.16581818182 87.272727272727 363.17090909091 122.18181818182 333.568 122.18181818182z"/><glyph unicode="&#xE036;" glyph-name="circle92" horiz-adv-x="512" d="M512 192c0 141.38181818182 -114.61818181818 256 -256 256S0 333.38181818182 0 192c0 -141.38181818182 114.61818181818 -256 256 -256 S512 50.618181818182 512 192zM256 403.57236363636c116.85236363636 0 211.57236363636 -94.72 211.57236363636 -211.57236363636c0 -54.621090909091 -20.689454545455 -104.40145454545 -54.667636363636 -141.94036363636L114.05963636364 348.90472727273 C151.59854545455 382.88290909091 201.37890909091 403.57236363636 256 403.57236363636zM44.427636363636 192c0 54.621090909091 20.689454545455 104.40145454545 54.667636363636 141.94036363636l298.84509090909 -298.82181818182c-37.538909090909 -33.978181818182 -87.319272727273 -54.667636363636 -141.94036363636 -54.667636363636 C139.14763636364 -19.572363636364 44.427636363636 75.147636363636 44.427636363636 192z"/><glyph unicode="&#xE037;" glyph-name="circular221" horiz-adv-x="512" d="M512 192c0 141.38181818182 -114.61818181818 256 -256 256C114.61818181818 448 0 333.38181818182 0 192c0 -141.38181818182 114.61818181818 -256 256 -256 C397.38181818182 -64 512 50.618181818182 512 192zM128 203.63636363636h116.36363636364v162.90909090909h23.272727272727v-186.18181818182h-139.63636363636V203.63636363636z"/><glyph unicode="&#xE038;" glyph-name="circular223" horiz-adv-x="468" d="M427.07436899764 338.29100912118l15.715071666425 -20.01447806573l7.6104435114135 9.7354374788862l7.5857342792336 9.7354374788862 c16.826987114522 21.521741228705 12.947637662275 52.630664543217 -8.4505574055306 69.358814729019l-39.015877612084 30.491192510014c-21.497031996525 16.777568650162 -52.605955311037 12.873509965735 -69.334105496839 -8.5741035664302l-15.196177790647 -19.446165725592l23.226678249119 -10.402586747744l11.4403744993 14.652574682689 c8.3764297089909 10.723806766083 23.967955214517 12.651126876116 34.667052748419 4.2994063993051l39.015877612084 -30.491192510014c10.674388301723 -8.351720476811 12.601708411756 -23.943245982337 4.2005694705854 -34.667052748419L427.07436899764 338.29100912118zM234.21881183341 331.34771487863L234.21881183341 183.28999565658L135.38188311375 183.28999565658L135.38188311375 158.48192654795L234.21881183341 158.48192654795L234.21881183341 158.38308961923L258.8292070846 158.38308961923L258.8292070846 158.48192654795L258.92804401332 158.48192654795L258.92804401332 183.28999565658L258.8292070846 183.28999565658L258.8292070846 331.34771487863ZM127.30196419092 428.99860045365c-16.802277882342 21.521741228705 -47.935910429033 25.302253752232 -69.334105496839 8.5741035664302L18.927271849814 407.08151151006 c-21.497031996525 -16.777568650162 -25.203416823512 -47.911201196853 -8.4505574055306 -69.358814729019L25.672892234931 318.27653105545l15.715071666425 20.01447806573L29.947589402056 352.94358380387c-8.3764297089909 10.723806766083 -6.4985280633174 26.315332271609 4.2005694705854 34.667052748419L73.164036484726 418.1018290623 c10.674388301723 8.351720476811 26.265913807249 6.4244003667777 34.667052748419 -4.2994063993051l11.4403744993 -14.652574682689l23.226678249119 10.402586747744L134.88769847015 419.26316297476L127.30196419092 428.99860045365zM11.835722214179 183.09232179914c0 -74.64659041552 36.767337483712 -140.69436803243 93.203223782636 -181.04454418223l-49.047825877129 -48.82544278751l17.29646252594 -17.2223348294 l52.902466097196 52.680083007577c31.973746440809 -17.815356401718 68.815211621061 -27.970850827663 108.02876309058 -27.970850827663c38.422856039766 0 74.547753486801 9.7354374788862 106.07673374837 26.883644611747l51.81525988128 -51.592876791661l17.29646252594 17.2223348294l-47.787655035954 47.589981178515 c57.42425558612 40.20192075672 94.98228849959 106.86742917813 94.98228849959 182.28000579123c0 122.82959316635 -99.553496452874 222.38308961923 -222.38308961923 222.38308961923C111.41392789923 405.47541141837 11.835722214179 305.89720573331 11.835722214179 183.09232179914zM431.89266927272 183.09232179914 c0 -109.16538777086 -88.508469668452 -197.67385743931 -197.67385743931 -197.67385743931c-109.16538777086 0 -197.67385743931 88.508469668452 -197.67385743931 197.67385743931c0 109.16538777086 88.508469668452 197.67385743931 197.67385743931 197.67385743931C343.38419960427 380.76617923845 431.89266927272 292.25770957 431.89266927272 183.09232179914z"/><glyph unicode="&#xE039;" glyph-name="circular225" horiz-adv-x="512" d="M512 192c0 141.38181818182 -114.61818181818 256 -256 256C114.61818181818 448 0 333.38181818182 0 192c0 -141.38181818182 114.61818181818 -256 256 -256 C397.38181818182 -64 512 50.618181818182 512 192zM256 424.72727272727c128.53527272727 0 232.72727272727 -104.192 232.72727272727 -232.72727272727c0 -60.090181818182 -22.760727272727 -114.85090909091 -60.136727272727 -156.13672727273L99.863272727273 364.59054545455C141.14909090909 401.96654545455 195.90981818182 424.72727272727 256 424.72727272727zM23.272727272727 192c0 60.090181818182 22.760727272727 114.85090909091 60.136727272727 156.13672727273l328.72727272727 -328.72727272727C370.85090909091 -17.966545454545 316.09018181818 -40.727272727273 256 -40.727272727273C127.46472727273 -40.727272727273 23.272727272727 63.464727272727 23.272727272727 192z"/><glyph unicode="&#xE03A;" glyph-name="circular226" horiz-adv-x="512" d="M388.63127272727 301.54472727273L372.17745454545 317.99854545455L257.00072727273 202.79854545455L174.70836363636 285.09090909091L158.25454545455 268.63709090909L257.00072727273 169.89090909091ZM512 192c0 141.38181818182 -114.61818181818 256 -256 256S0 333.38181818182 0 192c0 -141.38181818182 114.61818181818 -256 256 -256 S512 50.618181818182 512 192zM23.272727272727 192C23.272727272727 320.53527272727 127.46472727273 424.72727272727 256 424.72727272727c128.53527272727 0 232.72727272727 -104.192 232.72727272727 -232.72727272727s-104.192 -232.72727272727 -232.72727272727 -232.72727272727C127.46472727273 -40.727272727273 23.272727272727 63.464727272727 23.272727272727 192z"/><glyph unicode="&#xE03B;" glyph-name="circular230" horiz-adv-x="512" d="M270.89454545455 206.73163636364c0 0 49.198545454545 131.81672727273 90.507636363636 90.507636363636 C402.71127272727 255.93018181818 270.89454545455 206.73163636364 270.89454545455 206.73163636364l41.146181818182 -8.2385454545455c0 0 133.21309090909 47.802181818182 65.698909090909 115.31636363636c-67.514181818182 67.514181818182 -115.06036363636 -65.954909090909 -115.06036363636 -65.954909090909 L270.89454545455 206.73163636364zM267.63636363636 320L267.63636363636 401.45454545455L244.36363636364 401.45454545455L244.36363636364 320L256 296.72727272727ZM332.89309090909 121.69309090909C325.81818181818 151.31927272727 290.90909090909 180.36363636364 290.90909090909 180.36363636364l-23.272727272727 -11.636363636364 c0 0 35.933090909091 -34.792727272727 40.471272727273 -57.553454545455c7.0749090909091 -35.421090909091 62.138181818182 -69.12 62.138181818182 -69.12l-10.868363636364 27.554909090909h30.510545454545C389.888 69.608727272727 339.94472727273 92.090181818182 332.89309090909 121.69309090909zM256 192C256 192 256 192 256 192C256 192 256 192 256 192C256 192 256 192 256 192C256 192 256 192 256 192ZM337.45454545455 180.36363636364L465.45454545455 180.36363636364L465.45454545455 203.63636363636L372.36363636364 203.63636363636ZM512 192c0 141.38181818182 -114.61818181818 256 -256 256C114.61818181818 448 0 333.38181818182 0 192c0 -141.38181818182 114.61818181818 -256 256 -256 C397.38181818182 -64 512 50.618181818182 512 192zM23.272727272727 192C23.272727272727 320.53527272727 127.46472727273 424.72727272727 256 424.72727272727s232.72727272727 -104.192 232.72727272727 -232.72727272727s-104.192 -232.72727272727 -232.72727272727 -232.72727272727S23.272727272727 63.464727272727 23.272727272727 192zM200.12218181818 198.656l41.146181818182 8.2385454545455c0 0 -131.81672727273 49.198545454545 -90.507636363636 90.507636363636 c41.309090909091 41.309090909091 90.507636363636 -90.507636363636 90.507636363636 -90.507636363636l8.2385454545455 41.146181818182c0 0 -47.802181818182 133.21309090909 -115.31636363636 65.698909090909C66.653090909091 246.20218181818 200.12218181818 198.656 200.12218181818 198.656zM267.63636363636 110.54545454545L256 133.81818181818L244.36363636364 110.54545454545L244.36363636364 -17.454545454545L267.63636363636 -17.454545454545ZM139.63636363636 203.63636363636L46.545454545455 203.63636363636L46.545454545455 180.36363636364L174.54545454545 180.36363636364ZM248.832 168.72727272727l-23.272727272727 11.636363636364c0 0 -34.909090909091 -29.044363636364 -41.984 -58.670545454545 c-7.0749090909091 -29.626181818182 -56.994909090909 -52.107636363636 -56.994909090909 -52.107636363636H157.09090909091l-10.868363636364 -27.554909090909c0 0 55.063272727273 33.698909090909 62.138181818182 69.12C212.89890909091 133.93454545455 248.832 168.72727272727 248.832 168.72727272727z"/><glyph unicode="&#xE03C;" glyph-name="circular231" horiz-adv-x="605" d="M302.54545454545 -40.727272727273c-85.853090909091 0 -160.83781818182 46.475636363636 -201.16945454545 115.64218181818H74.821818181818C117.34109090909 -7.5869090909091 203.35709090909 -64 302.54545454545 -64 c133.53890909091 0 243.2 102.26036363636 254.95272727273 232.72727272727H605.09090909091l-58.181818181818 69.818181818182L488.72727272727 168.72727272727h45.405090909091C522.44945454545 51.130181818182 423.21454545455 -40.727272727273 302.54545454545 -40.727272727273zM302.54545454545 448C177.05890909091 448 72.657454545455 357.70181818182 50.757818181818 238.54545454545H0l58.181818181818 -69.818181818182L116.36363636364 238.54545454545H74.472727272727C96.046545454545 344.76218181818 189.952 424.72727272727 302.54545454545 424.72727272727 c76.008727272727 0 143.49963636364 -36.421818181818 185.97236363636 -92.788363636364h28.439272727273C471.22618181818 401.82690909091 392.28509090909 448 302.54545454545 448z"/><glyph unicode="&#xE03D;" glyph-name="circular232" horiz-adv-x="512" d="M361.40218181818 297.23927272727c-41.309090909091 41.309090909091 -90.507636363636 -90.507636363636 -90.507636363636 -90.507636363636 S402.71127272727 255.93018181818 361.40218181818 297.23927272727zM512 192c0 141.38181818182 -114.61818181818 256 -256 256C114.61818181818 448 0 333.38181818182 0 192c0 -141.38181818182 114.61818181818 -256 256 -256 C397.38181818182 -64 512 50.618181818182 512 192zM370.26909090909 42.053818181818c0 0 -55.063272727273 33.698909090909 -62.138181818182 69.12C303.56945454545 133.93454545455 267.63636363636 168.72727272727 267.63636363636 168.72727272727l23.272727272727 11.636363636364 c0 0 34.909090909091 -29.044363636364 41.984 -58.670545454545c7.0749090909091 -29.626181818182 56.994909090909 -52.107636363636 56.994909090909 -52.107636363636h-30.510545454545L370.26909090909 42.053818181818zM256 180.36363636364c-6.4232727272727 0 -11.636363636364 5.2130909090909 -11.636363636364 11.636363636364 s5.2130909090909 11.636363636364 11.636363636364 11.636363636364c6.4232727272727 0 11.636363636364 -5.2130909090909 11.636363636364 -11.636363636364S262.42327272727 180.36363636364 256 180.36363636364zM465.45454545455 203.63636363636v-23.272727272727h-128l34.909090909091 23.272727272727H465.45454545455zM377.71636363636 313.83272727273 c67.514181818182 -67.514181818182 -65.698909090909 -115.31636363636 -65.698909090909 -115.31636363636l-41.146181818182 8.2385454545455l-8.2152727272727 41.146181818182C262.656 247.87781818182 310.20218181818 381.34690909091 377.71636363636 313.83272727273zM244.36363636364 401.45454545455h23.272727272727v-81.454545454545l-11.636363636364 -23.272727272727 l-11.636363636364 23.272727272727V401.45454545455zM134.16727272727 313.71636363636c67.514181818182 67.514181818182 115.31636363636 -65.698909090909 115.31636363636 -65.698909090909l-8.2385454545455 -41.146181818182l-41.146181818182 -8.2385454545455C200.12218181818 198.656 66.653090909091 246.20218181818 134.16727272727 313.71636363636zM46.545454545455 180.36363636364v23.272727272727h93.090909090909l34.909090909091 -23.272727272727H46.545454545455zM146.19927272727 42.053818181818l10.868363636364 27.554909090909H126.58036363636c0 0 49.943272727273 22.481454545455 56.994909090909 52.107636363636C190.65018181818 151.31927272727 225.55927272727 180.36363636364 225.55927272727 180.36363636364l23.272727272727 -11.636363636364 c0 0 -35.933090909091 -34.792727272727 -40.471272727273 -57.553454545455C201.26254545455 75.752727272727 146.19927272727 42.053818181818 146.19927272727 42.053818181818zM244.36363636364 110.54545454545l11.636363636364 23.272727272727l11.636363636364 -23.272727272727V-17.454545454545h-23.272727272727V110.54545454545zM150.76072727273 297.40218181818c-41.309090909091 -41.309090909091 90.507636363636 -90.507636363636 90.507636363636 -90.507636363636S192.06981818182 338.71127272727 150.76072727273 297.40218181818 z"/><glyph unicode="&#xE03E;" glyph-name="clipboard69" horiz-adv-x="372" d="M51.013818181818 401.45454545455C51.013818181818 401.45454545455 0 401.45454545455 0 350.85963636364c0 -146.45527272727 0 -364.26472727273 0 -364.26472727273 C0 -64 51.013818181818 -64 51.013818181818 -64h270.336c0 0 51.013818181818 0 51.013818181818 50.594909090909V350.85963636364C372.36363636364 401.45454545455 321.34981818182 401.45454545455 321.34981818182 401.45454545455h-41.402181818182v-47.895272727273 c0 -7.5403636363636 -6.2370909090909 -13.661090909091 -13.800727272727 -13.661090909091H106.21672727273c-7.6101818181818 0 -13.777454545455 6.1207272727273 -13.777454545455 13.661090909091V401.45454545455H51.013818181818zM232.72727272727 354.90909090909c0 0 23.272727272727 -1.6523636363636 23.272727272727 22.667636363636c0 24.32 -23.272727272727 23.691636363636 -23.272727272727 23.691636363636S233.58836363636 448 186.18181818182 448 C138.77527272727 448 139.63636363636 401.26836363636 139.63636363636 401.26836363636S116.36363636364 400.26763636364 116.36363636364 377.57672727273C116.36363636364 354.90909090909 139.63636363636 354.90909090909 139.63636363636 354.90909090909H232.72727272727zM186.18181818182 424.72727272727c12.846545454545 0 23.272727272727 -10.426181818182 23.272727272727 -23.272727272727S199.02836363636 378.18181818182 186.18181818182 378.18181818182S162.90909090909 388.608 162.90909090909 401.45454545455S173.33527272727 424.72727272727 186.18181818182 424.72727272727z"/><glyph unicode="&#xE03F;" glyph-name="clipboard70" horiz-adv-x="372" d="M232.72727272727 354.90909090909c0 0 23.272727272727 -1.6523636363636 23.272727272727 22.667636363636c0 24.32 -23.272727272727 23.691636363636 -23.272727272727 23.691636363636S233.58836363636 448 186.18181818182 448 S139.63636363636 401.26836363636 139.63636363636 401.26836363636S116.36363636364 400.26763636364 116.36363636364 377.57672727273C116.36363636364 354.90909090909 139.63636363636 354.90909090909 139.63636363636 354.90909090909H232.72727272727zM186.18181818182 424.72727272727c12.846545454545 0 23.272727272727 -10.426181818182 23.272727272727 -23.272727272727S199.02836363636 378.18181818182 186.18181818182 378.18181818182C173.33527272727 378.18181818182 162.90909090909 388.608 162.90909090909 401.45454545455S173.33527272727 424.72727272727 186.18181818182 424.72727272727zM51.013818181818 378.85672727273h41.425454545455V401.45454545455h-41.425454545455C51.013818181818 401.45454545455 0 401.45454545455 0 350.85963636364c0 -146.45527272727 0 -364.26472727273 0 -364.26472727273 C0 -64 51.013818181818 -64 51.013818181818 -64h270.336c0 0 51.013818181818 0 51.013818181818 50.594909090909V350.85963636364C372.36363636364 401.45454545455 321.34981818182 401.45454545455 321.34981818182 401.45454545455h-41.402181818182v-22.597818181818h41.402181818182 c0 0 28.672 -2.6996363636364 28.672 -27.997090909091v-364.26472727273c0 -27.904 -28.672 -28.602181818182 -28.672 -28.602181818182H51.013818181818c0 0 -28.369454545455 3.3047272727273 -28.369454545455 28.602181818182V350.85963636364 C22.621090909091 376.15709090909 51.013818181818 378.85672727273 51.013818181818 378.85672727273z"/><glyph unicode="&#xE040;" glyph-name="clock73" horiz-adv-x="512" d="M512 192c0 141.38181818182 -114.61818181818 256 -256 256C114.61818181818 448 0 333.38181818182 0 192c0 -141.38181818182 114.61818181818 -256 256 -256 C397.38181818182 -64 512 50.618181818182 512 192zM174.70836363636 285.09090909091l82.292363636364 -82.292363636364l115.2 115.2l16.453818181818 -16.453818181818l-131.65381818182 -131.65381818182L158.25454545455 268.63709090909L174.70836363636 285.09090909091z"/><glyph unicode="&#xE041;" glyph-name="clock74" horiz-adv-x="559" d="M290.90909090909 354.16436363636L290.90909090909 183.85454545455L412.18327272727 112.384L423.98254545455 132.42181818182L314.18181818182 197.72509090909L314.18181818182 354.16436363636ZM101.02690909091 75.52H74.519272727273C116.89890909091 -7.3076363636364 203.10109090909 -64 302.54545454545 -64c141.38181818182 0 256 114.61818181818 256 256 c0 141.38181818182 -114.61818181818 256 -256 256C177.05890909091 448 72.657454545455 357.70181818182 50.757818181818 238.54545454545H0l58.181818181818 -69.818181818182L116.36363636364 238.54545454545H74.472727272727C96.046545454545 344.76218181818 189.952 424.72727272727 302.54545454545 424.72727272727c128.53527272727 0 232.72727272727 -104.192 232.72727272727 -232.72727272727 s-104.192 -232.72727272727 -232.72727272727 -232.72727272727C216.45963636364 -40.727272727273 141.26545454545 6.0276363636364 101.02690909091 75.52z"/><glyph unicode="&#xE042;" glyph-name="clock77" horiz-adv-x="512" d="M267.63636363636 366.54545454545L244.36363636364 366.54545454545L244.36363636364 203.63636363636L128 203.63636363636L128 180.36363636364L267.63636363636 180.36363636364ZM512 192c0 141.38181818182 -114.61818181818 256 -256 256C114.61818181818 448 0 333.38181818182 0 192c0 -141.38181818182 114.61818181818 -256 256 -256 C397.38181818182 -64 512 50.618181818182 512 192zM23.272727272727 192C23.272727272727 320.53527272727 127.46472727273 424.72727272727 256 424.72727272727c128.53527272727 0 232.72727272727 -104.192 232.72727272727 -232.72727272727s-104.192 -232.72727272727 -232.72727272727 -232.72727272727C127.46472727273 -40.727272727273 23.272727272727 63.464727272727 23.272727272727 192z"/><glyph unicode="&#xE043;" glyph-name="clockwise4" horiz-adv-x="559" d="M488.860598345 145.37201054833l69.837228335 81.476766390834h-48.932617986724C492.74820405565 351.74102027826 385.64117486587 448 256.06983722834 448C114.64944984996 448 0 333.35055015004 0 191.93016277166 c0 -138.6734563972 110.22642538874 -251.60025461489 247.85232336092 -255.93016277166v46.581431299445C135.94980449213 -13.111939619896 46.558152223334 78.980085477858 46.558152223334 191.93016277166c0 115.7202873511 93.791397653906 209.511685005 209.511685005 209.511685005c103.82467945803 0 189.98054014731 -75.494043830135 206.62507956715 -174.5930708375H419.02337001L488.860598345 145.37201054833z"/><glyph unicode="&#xE044;" glyph-name="clockwise5" horiz-adv-x="559" d="M500.50013640084 157.01154860416l58.197690279167 69.837228335h-48.909338910612C492.74820405565 351.74102027826 385.64117486587 448 256.06983722834 448C114.64944984996 448 0 333.35055015004 0 191.93016277166 c0 -138.6734563972 110.22642538874 -251.60025461489 247.85232336092 -255.93016277166v23.279076111667C123.09975447849 -36.391015731563 23.279076111667 66.106756388106 23.279076111667 191.93016277166C23.279076111667 320.5005001364 127.4994998636 424.72092388833 256.06983722834 424.72092388833c116.69800854779 0 213.32945348731 -85.876511775939 230.18350459216 -197.87214694917H442.30244612167 L500.50013640084 157.01154860416z"/><glyph unicode="&#xE045;" glyph-name="cloud259" horiz-adv-x="803" d="M0 82.270062058635c0 -72.495898423568 54.271488693915 -132.64740709038 125.52564376917 -144.26135958342l25.127041871745 -2.0087024752122h248.56780084171L404.26050360225 -63.306084599472 l248.56780084171 -0.69391540052785l25.127041871745 2.0087024752122C749.20950139097 -50.377345031743 803.48099008488 9.7741636350667 803.48099008488 82.270062058635c0 63.69412939582 -41.927098937157 117.89257436336 -100.4716456238 137.97959911549C700.89107639632 346.39617661745 594.90462943149 448 464.52157785862 448 c-94.043797703117 0 -175.37798701762 -52.847136029674 -214.23724944718 -129.65261430915C231.91383122905 338.06919181111 205.32591482987 350.48662529424 175.74320564948 350.48662529424c-55.476710179043 0 -100.43512376061 -43.680148370069 -100.43512376061 -97.513374705756c0 -14.060917326485 3.0678365075968 -27.427919252443 8.5461159854483 -39.516655966902 C34.184463941793 189.57129609815 0 139.79199657608 0 82.270062058635zM125.52564376917 200.60089878023L113.4734289179 232.19231043584C110.6612454526 238.25493972466 109.23689278836 244.71930950852 109.23689278836 251.43933233469c0 26.222697767316 26.514872672801 65.191525786433 68.113274841287 65.191525786433 c14.2800485056 0 31.007061844639 -7.1217633212069 40.575789999287 -17.238319423639l39.261002924602 -27.2818317997l33.380982951708 44.52015122334c37.800128397175 56.353234895499 101.56730151937 95.102931735502 173.47885013196 95.102931735502c101.42121406662 0 201.52764105856 -96.673371852486 203.13460303873 -193.31022184179 v-34.257507668165l35.316641700549 -9.4591625650902c39.808830872387 -13.403523789143 66.506312861117 -49.450602753406 66.506312861117 -89.697695984022c0 -46.638419288109 -47.770597046865 -105.07340038519 -95.906412725587 -112.74299165418h-22.095727227334h-246.8147514088v-0.29217490548541h-5.0400171196234v0.29217490548541H152.40573507383 L135.75176546116 -26.419002781939c-48.135815678722 7.6695912689921 -101.31164847707 64.753263428205 -101.31164847707 111.39168271631C34.440116984093 121.45802125687 65.520222555104 179.89300235395 125.52564376917 200.60089878023z"/><glyph unicode="&#xE046;" glyph-name="cocktail24" horiz-adv-x="445" d="M171.05613874943 354.52670013692L127.91821086262 443.20949338202C126.98347786399 445.85011410315 123.9689639434 448 121.11802829758 448H5.0942948425377 C2.2900958466454 448 0 445.73327247832 0 442.8823368325v-10.889639434048c0 -2.8275673208581 2.2900958466454 -5.0942948425377 5.0475581926061 -5.0942948425377h102.4701049749c2.7808306709265 0 5.7953445915107 -2.126517571885 6.776814240073 -4.8839799178457L147.03350068462 354.52670013692H116.84162482885v-0.25705157462346H69.941396622547 c-12.75910543131 0 -16.942035600183 -8.4827019625742 -9.2304883614788 -18.975079872204l176.17380191693 -238.98785942492l-2.3134641716111 -139.7425832953H183.62829758101v-20.564125969877h127.42747603834v20.564125969877h-56.06061159288l2.3134641716111 139.7425832953l183.67503423094 239.4084892743 c7.8751255134642 10.258694659973 3.7155636695573 18.554450022821 -9.2538566864445 18.554450022821H233.68324965769V354.52670013692H171.05613874943zM406.60885440438 331.15837517115l-0.28041989958923 -0.3738931994523h3.0145139205842l-35.309539023277 -43.067822911912L248.87266088544 120.84345047923L91.136467366499 331.15837517115h31.173345504336h99.034961204929H406.60885440438z"/></font>
</defs>
</svg>
